IbarraRealNova-Bold.ufo
<glyph name="numbersign" format="2">
  <advance width="487"/>
  <unicode hex="0023"/>
  <outline>
    <contour>
      <point x="244" y="-26" type="line"/>
      <point x="315" y="-26" type="line"/>
      <point x="422" y="674" type="line"/>
      <point x="348" y="674" type="line"/>
    </contour>
    <contour>
      <point x="20" y="166" type="line"/>
      <point x="424" y="166" type="line"/>
      <point x="434" y="235" type="line"/>
      <point x="30" y="235" type="line"/>
    </contour>
    <contour>
      <point x="64" y="-26" type="line"/>
      <point x="134" y="-26" type="line"/>
      <point x="241" y="674" type="line"/>
      <point x="169" y="674" type="line"/>
    </contour>
    <contour>
      <point x="53" y="396" type="line"/>
      <point x="457" y="396" type="line"/>
      <point x="467" y="465" type="line"/>
      <point x="63" y="465" type="line"/>
    </contour>
  </outline>
</glyph>
<glyph name="dollar" format="2">
  <advance width="583"/>
  <unicode hex="0024"/>
  <outline>
    <contour>
      <point x="269" y="-89" type="line"/>
      <point x="309" y="-89" type="line"/>
      <point x="309" y="766" type="line"/>
      <point x="269" y="766" type="line"/>
    </contour>
    <component base="S"/>
  </outline>
</glyph>
<glyph name="percent" format="2">
  <advance width="671"/>
  <unicode hex="0025"/>
  <outline>
    <contour>
      <point x="171" y="342" type="curve" smooth="yes"/>
      <point x="271" y="342"/>
      <point x="317" y="422"/>
      <point x="317" y="515" type="curve" smooth="yes"/>
      <point x="317" y="607"/>
      <point x="271" y="683"/>
      <point x="171" y="683" type="curve" smooth="yes"/>
      <point x="72" y="683"/>
      <point x="25" y="607"/>
      <point x="25" y="515" type="curve" smooth="yes"/>
      <point x="25" y="422"/>
      <point x="72" y="342"/>
    </contour>
    <contour>
      <point x="171" y="369" type="curve" smooth="yes"/>
      <point x="124" y="369"/>
      <point x="118" y="435"/>
      <point x="118" y="515" type="curve" smooth="yes"/>
      <point x="118" y="593"/>
      <point x="125" y="655"/>
      <point x="171" y="655" type="curve" smooth="yes"/>
      <point x="218" y="655"/>
      <point x="224" y="593"/>
      <point x="224" y="515" type="curve" smooth="yes"/>
      <point x="224" y="435"/>
      <point x="218" y="369"/>
    </contour>
    <contour>
      <point x="500" y="-11" type="curve" smooth="yes"/>
      <point x="600" y="-11"/>
      <point x="646" y="69"/>
      <point x="646" y="162" type="curve" smooth="yes"/>
      <point x="646" y="254"/>
      <point x="600" y="330"/>
      <point x="500" y="330" type="curve" smooth="yes"/>
      <point x="401" y="330"/>
      <point x="354" y="254"/>
      <point x="354" y="162" type="curve" smooth="yes"/>
      <point x="354" y="69"/>
      <point x="401" y="-11"/>
    </contour>
    <contour>
      <point x="500" y="16" type="curve" smooth="yes"/>
      <point x="453" y="16"/>
      <point x="447" y="82"/>
      <point x="447" y="162" type="curve" smooth="yes"/>
      <point x="447" y="240"/>
      <point x="454" y="302"/>
      <point x="500" y="302" type="curve" smooth="yes"/>
      <point x="547" y="302"/>
      <point x="553" y="240"/>
      <point x="553" y="162" type="curve" smooth="yes"/>
      <point x="553" y="82"/>
      <point x="547" y="16"/>
    </contour>
    <component base="fraction" xOffset="123"/>
  </outline>
</glyph>
<glyph name="ampersand" format="2">
  <advance width="743"/>
  <unicode hex="0026"/>
  <outline>
    <contour>
      <point x="318" y="-13" type="curve" smooth="yes"/>
      <point x="550" y="-13"/>
      <point x="645" y="102"/>
      <point x="645" y="272" type="curve" smooth="yes"/>
      <point x="645" y="295" type="line" smooth="yes"/>
      <point x="645" y="337"/>
      <point x="653" y="344"/>
      <point x="699" y="354" type="curve" smooth="yes"/>
      <point x="750" y="365" type="line"/>
      <point x="750" y="387" type="line"/>
      <point x="409" y="387" type="line"/>
      <point x="409" y="365" type="line"/>
      <point x="451" y="356" type="line" smooth="yes"/>
      <point x="497" y="346"/>
      <point x="505" y="337"/>
      <point x="505" y="295" type="curve" smooth="yes"/>
      <point x="505" y="280" type="line" smooth="yes"/>
      <point x="505" y="102"/>
      <point x="430" y="21"/>
      <point x="313" y="21" type="curve" smooth="yes"/>
      <point x="236" y="21"/>
      <point x="166" y="81"/>
      <point x="166" y="202" type="curve" smooth="yes"/>
      <point x="166" y="299"/>
      <point x="224" y="367"/>
      <point x="297" y="383" type="curve"/>
      <point x="340" y="377" type="line"/>
      <point x="350" y="400" type="line"/>
      <point x="319" y="412" type="line" smooth="yes"/>
      <point x="252" y="438"/>
      <point x="225" y="481"/>
      <point x="225" y="541" type="curve" smooth="yes"/>
      <point x="225" y="607"/>
      <point x="254" y="647"/>
      <point x="312" y="647" type="curve" smooth="yes"/>
      <point x="356" y="647"/>
      <point x="375" y="630"/>
      <point x="375" y="617" type="curve" smooth="yes"/>
      <point x="375" y="603"/>
      <point x="371" y="596"/>
      <point x="366" y="588" type="curve"/>
      <point x="361" y="579"/>
      <point x="355" y="570"/>
      <point x="355" y="551" type="curve" smooth="yes"/>
      <point x="355" y="521"/>
      <point x="382" y="504"/>
      <point x="413" y="504" type="curve" smooth="yes"/>
      <point x="444" y="504"/>
      <point x="466" y="525"/>
      <point x="466" y="562" type="curve" smooth="yes"/>
      <point x="466" y="641"/>
      <point x="373" y="683"/>
      <point x="280" y="683" type="curve" smooth="yes"/>
      <point x="186" y="683"/>
      <point x="92" y="641"/>
      <point x="92" y="552" type="curve" smooth="yes"/>
      <point x="92" y="487"/>
      <point x="129" y="456"/>
      <point x="208" y="426" type="curve"/>
      <point x="208" y="423" type="line"/>
      <point x="81" y="409"/>
      <point x="18" y="318"/>
      <point x="18" y="232" type="curve" smooth="yes"/>
      <point x="18" y="69"/>
      <point x="152" y="-13"/>
    </contour>
  </outline>
</glyph>
<glyph name="quotesingle" format="2">
  <advance width="285"/>
  <unicode hex="0027"/>
  <outline>
    <contour>
      <point x="106" y="401" type="line"/>
      <point x="179" y="401" type="line"/>
      <point x="226" y="710" type="line"/>
      <point x="59" y="710" type="line"/>
    </contour>
  </outline>
</glyph>
<glyph name="parenleft" format="2">
  <advance width="299"/>
  <unicode hex="0028"/>
  <outline>
    <contour>
      <point x="229" y="-244" type="curve"/>
      <point x="257" y="-224" type="line"/>
      <point x="177" y="-75"/>
      <point x="134" y="85"/>
      <point x="134" y="257" type="curve" smooth="yes"/>
      <point x="134" y="433"/>
      <point x="179" y="593"/>
      <point x="257" y="738" type="curve"/>
      <point x="229" y="758" type="line"/>
      <point x="85" y="616"/>
      <point x="35" y="419"/>
      <point x="35" y="257" type="curve" smooth="yes"/>
      <point x="35" y="95"/>
      <point x="85" y="-102"/>
    </contour>
  </outline>
</glyph>
<glyph name="asterisk" format="2">
  <advance width="451"/>
  <unicode hex="002A"/>
  <outline>
    <contour>
      <point x="351" y="380" type="curve" smooth="yes"/>
      <point x="375" y="366"/>
      <point x="398" y="387"/>
      <point x="405" y="399" type="curve" smooth="yes"/>
      <point x="412" y="410"/>
      <point x="418" y="441"/>
      <point x="394" y="455" type="curve" smooth="yes"/>
      <point x="376" y="466"/>
      <point x="354" y="469"/>
      <point x="328" y="475" type="curve" smooth="yes"/>
      <point x="299" y="481"/>
      <point x="270" y="488"/>
      <point x="237" y="507" type="curve" smooth="yes"/>
      <point x="224" y="514" type="line" smooth="yes"/>
      <point x="192" y="533"/>
      <point x="171" y="555"/>
      <point x="150" y="578" type="curve" smooth="yes"/>
      <point x="134" y="596"/>
      <point x="119" y="614"/>
      <point x="100" y="625" type="curve" smooth="yes"/>
      <point x="76" y="639"/>
      <point x="53" y="618"/>
      <point x="46" y="606" type="curve" smooth="yes"/>
      <point x="39" y="595"/>
      <point x="33" y="564"/>
      <point x="57" y="550" type="curve" smooth="yes"/>
      <point x="75" y="539"/>
      <point x="99" y="536"/>
      <point x="123" y="531" type="curve" smooth="yes"/>
      <point x="153" y="524"/>
      <point x="183" y="517"/>
      <point x="215" y="499" type="curve" smooth="yes"/>
      <point x="228" y="491" type="line" smooth="yes"/>
      <point x="261" y="472"/>
      <point x="281" y="450"/>
      <point x="301" y="428" type="curve" smooth="yes"/>
      <point x="319" y="409"/>
      <point x="332" y="391"/>
    </contour>
    <contour>
      <point x="100" y="380" type="curve" smooth="yes"/>
      <point x="119" y="390"/>
      <point x="133" y="410"/>
      <point x="150" y="428" type="curve" smooth="yes"/>
      <point x="171" y="450"/>
      <point x="192" y="473"/>
      <point x="223" y="492" type="curve" smooth="yes"/>
      <point x="237" y="499" type="line" smooth="yes"/>
      <point x="270" y="518"/>
      <point x="299" y="524"/>
      <point x="328" y="531" type="curve" smooth="yes"/>
      <point x="353" y="537"/>
      <point x="375" y="539"/>
      <point x="394" y="550" type="curve" smooth="yes"/>
      <point x="418" y="564"/>
      <point x="412" y="594"/>
      <point x="405" y="606" type="curve" smooth="yes"/>
      <point x="399" y="618"/>
      <point x="375" y="638"/>
      <point x="351" y="625" type="curve" smooth="yes"/>
      <point x="332" y="615"/>
      <point x="319" y="597"/>
      <point x="301" y="578" type="curve" smooth="yes"/>
      <point x="281" y="555"/>
      <point x="260" y="534"/>
      <point x="227" y="515" type="curve" smooth="yes"/>
      <point x="215" y="507" type="line" smooth="yes"/>
      <point x="182" y="489"/>
      <point x="153" y="482"/>
      <point x="122" y="475" type="curve" smooth="yes"/>
      <point x="99" y="470"/>
      <point x="76" y="466"/>
      <point x="57" y="455" type="curve" smooth="yes"/>
      <point x="33" y="441"/>
      <point x="39" y="411"/>
      <point x="46" y="399" type="curve" smooth="yes"/>
      <point x="52" y="387"/>
      <point x="76" y="367"/>
    </contour>
    <contour>
      <point x="226" y="295" type="curve" smooth="yes"/>
      <point x="239" y="295"/>
      <point x="269" y="305"/>
      <point x="269" y="333" type="curve" smooth="yes"/>
      <point x="269" y="354"/>
      <point x="261" y="375"/>
      <point x="253" y="400" type="curve" smooth="yes"/>
      <point x="244" y="428"/>
      <point x="235" y="457"/>
      <point x="235" y="495" type="curve" smooth="yes"/>
      <point x="235" y="510" type="line" smooth="yes"/>
      <point x="235" y="547"/>
      <point x="244" y="576"/>
      <point x="253" y="605" type="curve" smooth="yes"/>
      <point x="261" y="629"/>
      <point x="269" y="651"/>
      <point x="269" y="672" type="curve" smooth="yes"/>
      <point x="269" y="700"/>
      <point x="239" y="710"/>
      <point x="225" y="710" type="curve" smooth="yes"/>
      <point x="212" y="710"/>
      <point x="182" y="700"/>
      <point x="182" y="672" type="curve" smooth="yes"/>
      <point x="182" y="651"/>
      <point x="191" y="629"/>
      <point x="199" y="605" type="curve" smooth="yes"/>
      <point x="208" y="576"/>
      <point x="217" y="547"/>
      <point x="217" y="510" type="curve" smooth="yes"/>
      <point x="217" y="495" type="line" smooth="yes"/>
      <point x="217" y="457"/>
      <point x="208" y="428"/>
      <point x="199" y="400" type="curve" smooth="yes"/>
      <point x="191" y="375"/>
      <point x="182" y="354"/>
      <point x="182" y="333" type="curve" smooth="yes"/>
      <point x="182" y="305"/>
      <point x="212" y="295"/>
    </contour>
  </outline>
</glyph>
<glyph name="plus" format="2">
  <advance width="570"/>
  <unicode hex="002B"/>
  <outline>
    <contour>
      <point x="256" y="127" type="line"/>
      <point x="313" y="127" type="line"/>
      <point x="313" y="304" type="line"/>
      <point x="494" y="304" type="line"/>
      <point x="494" y="361" type="line"/>
      <point x="313" y="361" type="line"/>
      <point x="313" y="537" type="line"/>
      <point x="256" y="537" type="line"/>
      <point x="256" y="361" type="line"/>
      <point x="76" y="361" type="line"/>
      <point x="76" y="304" type="line"/>
      <point x="256" y="304" type="line"/>
    </contour>
  </outline>
</glyph>
<glyph name="hyphen" format="2">
  <advance width="285"/>
  <unicode hex="002D"/>
  <outline>
    <contour>
      <point x="12" y="330" type="line"/>
      <point x="12" y="240" type="line"/>
      <point x="273" y="240" type="line"/>
      <point x="273" y="330" type="line"/>
    </contour>
  </outline>
</glyph>
<glyph name="one" format="2">
  <advance width="395"/>
  <unicode hex="0031"/>
  <outline>
    <contour>
      <point x="30" y="0" type="line"/>
      <point x="380" y="0" type="line"/>
      <point x="380" y="22" type="line"/>
      <point x="329" y="33" type="line" smooth="yes"/>
      <point x="283" y="43"/>
      <point x="275" y="56"/>
      <point x="275" y="98" type="curve" smooth="yes"/>
      <point x="275" y="680" type="line"/>
      <point x="30" y="640" type="line"/>
      <point x="30" y="611" type="line"/>
      <point x="102" y="614" type="line" smooth="yes"/>
      <point x="127" y="615"/>
      <point x="135" y="606"/>
      <point x="135" y="587" type="curve" smooth="yes"/>
      <point x="135" y="98" type="line" smooth="yes"/>
      <point x="135" y="56"/>
      <point x="127" y="43"/>
      <point x="81" y="33" type="curve" smooth="yes"/>
      <point x="30" y="22" type="line"/>
    </contour>
  </outline>
</glyph>
<glyph name="five" format="2">
  <advance width="495"/>
  <unicode hex="0035"/>
  <outline>
    <contour>
      <point x="197" y="-9" type="curve" smooth="yes"/>
      <point x="373" y="-9"/>
      <point x="455" y="102"/>
      <point x="455" y="219" type="curve" smooth="yes"/>
      <point x="455" y="361"/>
      <point x="335" y="444"/>
      <point x="182" y="444" type="curve" smooth="yes"/>
      <point x="167" y="444"/>
      <point x="152" y="444"/>
      <point x="136" y="442" type="curve"/>
      <point x="152" y="581" type="line"/>
      <point x="410" y="581" type="line"/>
      <point x="442" y="749" type="line"/>
      <point x="415" y="749" type="line"/>
      <point x="404" y="719" type="line"/>
      <point x="395" y="697"/>
      <point x="378" y="687"/>
      <point x="360" y="687" type="curve" smooth="yes"/>
      <point x="121" y="687" type="line"/>
      <point x="84" y="355" type="line"/>
      <point x="96" y="348" type="line"/>
      <point x="113" y="350"/>
      <point x="122" y="351"/>
      <point x="137" y="351" type="curve" smooth="yes"/>
      <point x="235" y="351"/>
      <point x="313" y="301"/>
      <point x="313" y="205" type="curve" smooth="yes"/>
      <point x="313" y="86"/>
      <point x="250" y="28"/>
      <point x="180" y="28" type="curve" smooth="yes"/>
      <point x="132" y="28"/>
      <point x="93" y="45"/>
      <point x="93" y="69" type="curve" smooth="yes"/>
      <point x="93" y="79"/>
      <point x="100" y="85"/>
      <point x="108" y="93" type="curve"/>
      <point x="118" y="102"/>
      <point x="129" y="114"/>
      <point x="129" y="138" type="curve" smooth="yes"/>
      <point x="129" y="165"/>
      <point x="107" y="187"/>
      <point x="69" y="187" type="curve" smooth="yes"/>
      <point x="39" y="187"/>
      <point x="10" y="166"/>
      <point x="10" y="124" type="curve" smooth="yes"/>
      <point x="10" y="41"/>
      <point x="96" y="-9"/>
    </contour>
  </outline>
</glyph>
<glyph name="six" format="2">
  <advance width="531"/>
  <unicode hex="0036"/>
  <outline>
    <contour>
      <point x="272" y="-9" type="curve" smooth="yes"/>
      <point x="399" y="-9"/>
      <point x="506" y="69"/>
      <point x="506" y="216" type="curve" smooth="yes"/>
      <point x="506" y="318"/>
      <point x="439" y="423"/>
      <point x="305" y="423" type="curve" smooth="yes"/>
      <point x="218" y="423"/>
      <point x="158" y="365"/>
      <point x="148" y="301" type="curve"/>
      <point x="173" y="200" type="line"/>
      <point x="173" y="300"/>
      <point x="204" y="372"/>
      <point x="278" y="372" type="curve" smooth="yes"/>
      <point x="340" y="372"/>
      <point x="364" y="316"/>
      <point x="364" y="214" type="curve" smooth="yes"/>
      <point x="364" y="93"/>
      <point x="338" y="29"/>
      <point x="274" y="29" type="curve" smooth="yes"/>
      <point x="222" y="29"/>
      <point x="181" y="100"/>
      <point x="181" y="254" type="curve" smooth="yes"/>
      <point x="181" y="439"/>
      <point x="221" y="641"/>
      <point x="440" y="661" type="curve"/>
      <point x="438" y="683" type="line"/>
      <point x="204" y="683"/>
      <point x="35" y="518"/>
      <point x="35" y="262" type="curve" smooth="yes"/>
      <point x="35" y="86"/>
      <point x="127" y="-9"/>
    </contour>
  </outline>
</glyph>
<glyph name="seven" format="2">
  <advance width="520"/>
  <unicode hex="0037"/>
  <outline>
    <contour>
      <point x="105" y="0" type="line"/>
      <point x="254" y="0" type="line"/>
      <point x="475" y="573" type="line"/>
      <point x="475" y="674" type="line"/>
      <point x="62" y="674" type="line"/>
      <point x="20" y="481" type="line"/>
      <point x="43" y="481" type="line"/>
      <point x="59" y="521" type="line" smooth="yes"/>
      <point x="69" y="545"/>
      <point x="88" y="556"/>
      <point x="107" y="556" type="curve" smooth="yes"/>
      <point x="402" y="556" type="line"/>
    </contour>
  </outline>
</glyph>
<glyph name="nine" format="2">
  <advance width="531"/>
  <unicode hex="0039"/>
  <outline>
    <contour>
      <point x="259" y="684" type="curve" smooth="yes"/>
      <point x="132" y="684"/>
      <point x="25" y="606"/>
      <point x="25" y="459" type="curve" smooth="yes"/>
      <point x="25" y="357"/>
      <point x="92" y="252"/>
      <point x="226" y="252" type="curve" smooth="yes"/>
      <point x="313" y="252"/>
      <point x="373" y="310"/>
      <point x="383" y="374" type="curve"/>
      <point x="358" y="475" type="line"/>
      <point x="358" y="375"/>
      <point x="327" y="303"/>
      <point x="253" y="303" type="curve" smooth="yes"/>
      <point x="191" y="303"/>
      <point x="167" y="359"/>
      <point x="167" y="461" type="curve" smooth="yes"/>
      <point x="167" y="582"/>
      <point x="193" y="646"/>
      <point x="257" y="646" type="curve" smooth="yes"/>
      <point x="309" y="646"/>
      <point x="350" y="575"/>
      <point x="350" y="421" type="curve" smooth="yes"/>
      <point x="350" y="236"/>
      <point x="310" y="34"/>
      <point x="91" y="14" type="curve"/>
      <point x="93" y="-8" type="line"/>
      <point x="327" y="-8"/>
      <point x="496" y="157"/>
      <point x="496" y="413" type="curve" smooth="yes"/>
      <point x="496" y="589"/>
      <point x="404" y="684"/>
    </contour>
  </outline>
</glyph>
<glyph name="less" format="2">
  <advance width="570"/>
  <unicode hex="003C"/>
  <outline>
    <contour>
      <point x="502" y="188" type="line"/>
      <point x="185" y="334" type="line"/>
      <point x="502" y="479" type="line"/>
      <point x="502" y="540" type="line"/>
      <point x="78" y="343" type="line"/>
      <point x="77" y="325" type="line"/>
      <point x="502" y="126" type="line"/>
    </contour>
  </outline>
</glyph>
<glyph name="question" format="2">
  <advance width="383"/>
  <unicode hex="003F"/>
  <outline>
    <contour>
      <point x="87" y="193" type="curve"/>
      <point x="129" y="193" type="line"/>
      <point x="129" y="234"/>
      <point x="138" y="255"/>
      <point x="218" y="266" type="curve" smooth="yes"/>
      <point x="320" y="280"/>
      <point x="348" y="341"/>
      <point x="348" y="441" type="curve" smooth="yes"/>
      <point x="348" y="540"/>
      <point x="314" y="584"/>
      <point x="229" y="598" type="curve" smooth="yes"/>
      <point x="131" y="614" type="line" smooth="yes"/>
      <point x="112" y="617"/>
      <point x="94" y="625"/>
      <point x="89" y="643" type="curve" smooth="yes"/>
      <point x="81" y="673" type="line"/>
      <point x="62" y="673" type="line"/>
      <point x="62" y="497" type="line"/>
      <point x="237" y="478" type="line" smooth="yes"/>
      <point x="273" y="474"/>
      <point x="288" y="464"/>
      <point x="288" y="436" type="curve" smooth="yes"/>
      <point x="288" y="407"/>
      <point x="279" y="399"/>
      <point x="216" y="389" type="curve" smooth="yes"/>
      <point x="114" y="373"/>
      <point x="87" y="335"/>
    </contour>
    <contour>
      <point x="111" y="-11" type="curve" smooth="yes"/>
      <point x="153" y="-11"/>
      <point x="187" y="23"/>
      <point x="187" y="65" type="curve" smooth="yes"/>
      <point x="187" y="108"/>
      <point x="153" y="142"/>
      <point x="111" y="142" type="curve" smooth="yes"/>
      <point x="69" y="142"/>
      <point x="35" y="108"/>
      <point x="35" y="65" type="curve" smooth="yes"/>
      <point x="35" y="23"/>
      <point x="69" y="-11"/>
    </contour>
  </outline>
</glyph>
<glyph name="at" format="2">
  <advance width="1007"/>
  <unicode hex="0040"/>
  <outline>
    <contour>
      <point x="509" y="-214" type="curve" smooth="yes"/>
      <point x="637" y="-214"/>
      <point x="768" y="-170"/>
      <point x="865" y="-95" type="curve"/>
      <point x="834" y="-55" type="line"/>
      <point x="741" y="-121"/>
      <point x="625" y="-153"/>
      <point x="519" y="-153" type="curve" smooth="yes"/>
      <point x="322" y="-153"/>
      <point x="157" y="-49"/>
      <point x="157" y="229" type="curve" smooth="yes"/>
      <point x="157" y="481"/>
      <point x="309" y="637"/>
      <point x="519" y="637" type="curve" smooth="yes"/>
      <point x="750" y="637"/>
      <point x="854" y="473"/>
      <point x="854" y="305" type="curve" smooth="yes"/>
      <point x="854" y="139"/>
      <point x="799" y="53"/>
      <point x="730" y="53" type="curve" smooth="yes"/>
      <point x="682" y="53"/>
      <point x="669" y="71"/>
      <point x="669" y="139" type="curve" smooth="yes"/>
      <point x="669" y="302" type="line" smooth="yes"/>
      <point x="669" y="397"/>
      <point x="598" y="443"/>
      <point x="509" y="443" type="curve" smooth="yes"/>
      <point x="420" y="443"/>
      <point x="327" y="397"/>
      <point x="327" y="321" type="curve" smooth="yes"/>
      <point x="327" y="291"/>
      <point x="350" y="263"/>
      <point x="384" y="263" type="curve" smooth="yes"/>
      <point x="414" y="263"/>
      <point x="440" y="288"/>
      <point x="440" y="317" type="curve" smooth="yes"/>
      <point x="440" y="334"/>
      <point x="435" y="345"/>
      <point x="430" y="354" type="curve"/>
      <point x="426" y="362"/>
      <point x="421" y="368"/>
      <point x="421" y="374" type="curve" smooth="yes"/>
      <point x="421" y="402"/>
      <point x="447" y="415"/>
      <point x="478" y="415" type="curve" smooth="yes"/>
      <point x="517" y="415"/>
      <point x="554" y="389"/>
      <point x="554" y="327" type="curve" smooth="yes"/>
      <point x="554" y="285" type="line" smooth="yes"/>
      <point x="554" y="266"/>
      <point x="549" y="257"/>
      <point x="526" y="248" type="curve" smooth="yes"/>
      <point x="335" y="172" type="line" smooth="yes"/>
      <point x="324" y="168"/>
      <point x="320" y="161"/>
      <point x="320" y="137" type="curve" smooth="yes"/>
      <point x="320" y="61"/>
      <point x="372" y="-7"/>
      <point x="445" y="-7" type="curve" smooth="yes"/>
      <point x="495" y="-7"/>
      <point x="556" y="34"/>
      <point x="599" y="71" type="curve"/>
      <point x="597" y="102" type="line"/>
      <point x="565" y="109" type="line"/>
      <point x="565" y="41"/>
      <point x="630" y="4"/>
      <point x="701" y="4" type="curve" smooth="yes"/>
      <point x="828" y="4"/>
      <point x="967" y="99"/>
      <point x="967" y="307" type="curve" smooth="yes"/>
      <point x="967" y="497"/>
      <point x="826" y="681"/>
      <point x="521" y="681" type="curve" smooth="yes"/>
      <point x="242" y="681"/>
      <point x="40" y="479"/>
      <point x="40" y="228" type="curve" smooth="yes"/>
      <point x="40" y="-68"/>
      <point x="258" y="-214"/>
    </contour>
    <contour>
      <point x="493" y="52" type="curve" smooth="yes"/>
      <point x="457" y="52"/>
      <point x="425" y="103"/>
      <point x="425" y="144" type="curve" smooth="yes"/>
      <point x="425" y="165"/>
      <point x="428" y="170"/>
      <point x="436" y="173" type="curve" smooth="yes"/>
      <point x="548" y="218" type="line"/>
      <point x="552" y="220"/>
      <point x="554" y="218"/>
      <point x="554" y="215" type="curve" smooth="yes"/>
      <point x="554" y="95" type="line" smooth="yes"/>
      <point x="554" y="82"/>
      <point x="550" y="74"/>
      <point x="543" y="69" type="curve" smooth="yes"/>
      <point x="531" y="61"/>
      <point x="515" y="52"/>
    </contour>
  </outline>
</glyph>
<glyph name="A" format="2">
  <advance width="769"/>
  <unicode hex="0041"/>
  <anchor x="603" y="-52" name="ogonek"/>
  <anchor x="376" y="690" name="topcase"/>
  <outline>
    <contour>
      <point x="5" y="0" type="line"/>
      <point x="267" y="0" type="line"/>
      <point x="267" y="22" type="line"/>
      <point x="181" y="37" type="line" smooth="yes"/>
      <point x="159" y="41"/>
      <point x="151" y="51"/>
      <point x="151" y="63" type="curve" smooth="yes"/>
      <point x="151" y="66"/>
      <point x="152" y="70"/>
      <point x="153" y="74" type="curve" smooth="yes"/>
      <point x="347" y="533" type="line"/>
      <point x="325" y="533" type="line"/>
      <point x="503" y="87" type="line" smooth="yes"/>
      <point x="506" y="79"/>
      <point x="508" y="72"/>
      <point x="508" y="66" type="curve" smooth="yes"/>
      <point x="508" y="49"/>
      <point x="494" y="39"/>
      <point x="465" y="33" type="curve" smooth="yes"/>
      <point x="414" y="22" type="line"/>
      <point x="414" y="0" type="line"/>
      <point x="764" y="0" type="line"/>
      <point x="764" y="22" type="line"/>
      <point x="713" y="33" type="line" smooth="yes"/>
      <point x="681" y="40"/>
      <point x="669" y="46"/>
      <point x="662" y="62" type="curve" smooth="yes"/>
      <point x="400" y="698" type="line"/>
      <point x="386" y="698" type="line"/>
      <point x="386" y="677"/>
      <point x="352" y="637"/>
      <point x="288" y="635" type="curve"/>
      <point x="319" y="558" type="line"/>
      <point x="115" y="75" type="line" smooth="yes"/>
      <point x="106" y="54"/>
      <point x="92" y="42"/>
      <point x="63" y="35" type="curve" smooth="yes"/>
      <point x="5" y="22" type="line"/>
    </contour>
    <contour>
      <point x="216" y="226" type="line"/>
      <point x="501" y="226" type="line"/>
      <point x="501" y="259" type="line"/>
      <point x="216" y="259" type="line"/>
    </contour>
  </outline>
</glyph>
<glyph name="B" format="2">
  <advance width="715"/>
  <unicode hex="0042"/>
  <outline>
    <contour>
      <point x="30" y="0" type="line"/>
      <point x="380" y="0" type="line" smooth="yes"/>
      <point x="536" y="0"/>
      <point x="665" y="53"/>
      <point x="665" y="203" type="curve" smooth="yes"/>
      <point x="665" y="305"/>
      <point x="571" y="368"/>
      <point x="473" y="374" type="curve"/>
      <point x="473" y="376" type="line"/>
      <point x="566" y="389"/>
      <point x="628" y="433"/>
      <point x="628" y="517" type="curve" smooth="yes"/>
      <point x="628" y="611"/>
      <point x="537" y="673"/>
      <point x="400" y="673" type="curve" smooth="yes"/>
      <point x="30" y="673" type="line"/>
      <point x="30" y="651" type="line"/>
      <point x="81" y="640" type="line" smooth="yes"/>
      <point x="127" y="630"/>
      <point x="135" y="623"/>
      <point x="135" y="581" type="curve" smooth="yes"/>
      <point x="135" y="92" type="line" smooth="yes"/>
      <point x="135" y="50"/>
      <point x="127" y="43"/>
      <point x="81" y="33" type="curve" smooth="yes"/>
      <point x="30" y="22" type="line"/>
    </contour>
    <contour>
      <point x="334" y="33" type="line" smooth="yes"/>
      <point x="289" y="33"/>
      <point x="275" y="44"/>
      <point x="275" y="88" type="curve" smooth="yes"/>
      <point x="275" y="353" type="line"/>
      <point x="357" y="353" type="line" smooth="yes"/>
      <point x="463" y="353"/>
      <point x="505" y="298"/>
      <point x="505" y="203" type="curve" smooth="yes"/>
      <point x="505" y="102"/>
      <point x="451" y="33"/>
      <point x="361" y="33" type="curve" smooth="yes"/>
    </contour>
    <contour>
      <point x="275" y="386" type="line"/>
      <point x="275" y="640" type="line"/>
      <point x="342" y="640" type="line" smooth="yes"/>
      <point x="426" y="640"/>
      <point x="476" y="591"/>
      <point x="476" y="516" type="curve" smooth="yes"/>
      <point x="476" y="446"/>
      <point x="434" y="386"/>
      <point x="364" y="386" type="curve" smooth="yes"/>
    </contour>
  </outline>
</glyph>
<glyph name="C" format="2">
  <advance width="739"/>
  <unicode hex="0043"/>
  <anchor x="450" y="-50" name="bottom"/>
  <anchor x="432" y="690" name="topcase"/>
  <outline>
    <contour>
      <point x="435" y="-10" type="curve" smooth="yes"/>
      <point x="500" y="-10"/>
      <point x="540" y="1"/>
      <point x="577" y="12" type="curve" smooth="yes"/>
      <point x="607" y="20"/>
      <point x="640" y="29"/>
      <point x="676" y="29" type="curve" smooth="yes"/>
      <point x="683" y="29" type="line"/>
      <point x="684" y="92"/>
      <point x="695" y="160"/>
      <point x="714" y="224" type="curve"/>
      <point x="683" y="224" type="line"/>
      <point x="639" y="113"/>
      <point x="555" y="24"/>
      <point x="431" y="24" type="curve" smooth="yes"/>
      <point x="286" y="24"/>
      <point x="193" y="148"/>
      <point x="193" y="329" type="curve" smooth="yes"/>
      <point x="193" y="524"/>
      <point x="297" y="648"/>
      <point x="427" y="648" type="curve" smooth="yes"/>
      <point x="550" y="648"/>
      <point x="626" y="567"/>
      <point x="675" y="451" type="curve"/>
      <point x="702" y="451" type="line"/>
      <point x="688" y="516"/>
      <point x="675" y="580"/>
      <point x="690" y="637" type="curve"/>
      <point x="686" y="640" type="line"/>
      <point x="673" y="637"/>
      <point x="663" y="635"/>
      <point x="648" y="635" type="curve" smooth="yes"/>
      <point x="618" y="635"/>
      <point x="599" y="645"/>
      <point x="575" y="656" type="curve" smooth="yes"/>
      <point x="545" y="669"/>
      <point x="507" y="683"/>
      <point x="431" y="683" type="curve" smooth="yes"/>
      <point x="206" y="683"/>
      <point x="40" y="532"/>
      <point x="40" y="329" type="curve" smooth="yes"/>
      <point x="40" y="140"/>
      <point x="203" y="-10"/>
    </contour>
  </outline>
</glyph>
<glyph name="E" format="2">
  <advance width="670"/>
  <unicode hex="0045"/>
  <anchor x="489" y="-52" name="ogonek"/>
  <anchor x="344" y="690" name="topcase"/>
  <outline>
    <contour>
      <point x="30" y="0" type="line"/>
      <point x="615" y="0" type="line"/>
      <point x="615" y="61"/>
      <point x="626" y="121"/>
      <point x="640" y="180" type="curve"/>
      <point x="618" y="180" type="line"/>
      <point x="575" y="120" type="line" smooth="yes"/>
      <point x="536" y="65"/>
      <point x="490" y="33"/>
      <point x="418" y="33" type="curve" smooth="yes"/>
      <point x="344" y="33" type="line" smooth="yes"/>
      <point x="275" y="33"/>
      <point x="275" y="60"/>
      <point x="275" y="119" type="curve" smooth="yes"/>
      <point x="275" y="339" type="line"/>
      <point x="405" y="339" type="line" smooth="yes"/>
      <point x="469" y="339"/>
      <point x="493" y="312"/>
      <point x="501" y="265" type="curve" smooth="yes"/>
      <point x="510" y="217" type="line"/>
      <point x="532" y="217" type="line"/>
      <point x="532" y="494" type="line"/>
      <point x="510" y="494" type="line"/>
      <point x="502" y="448" type="line" smooth="yes"/>
      <point x="494" y="400"/>
      <point x="470" y="372"/>
      <point x="403" y="372" type="curve" smooth="yes"/>
      <point x="275" y="372" type="line"/>
      <point x="275" y="640" type="line"/>
      <point x="408" y="640" type="line" smooth="yes"/>
      <point x="497" y="640"/>
      <point x="558" y="575"/>
      <point x="591" y="496" type="curve"/>
      <point x="613" y="496" type="line"/>
      <point x="606" y="539"/>
      <point x="598" y="577"/>
      <point x="598" y="618" type="curve" smooth="yes"/>
      <point x="598" y="636"/>
      <point x="599" y="654"/>
      <point x="603" y="673" type="curve"/>
      <point x="30" y="673" type="line"/>
      <point x="30" y="651" type="line"/>
      <point x="81" y="640" type="line" smooth="yes"/>
      <point x="127" y="630"/>
      <point x="135" y="623"/>
      <point x="135" y="581" type="curve" smooth="yes"/>
      <point x="135" y="92" type="line" smooth="yes"/>
      <point x="135" y="50"/>
      <point x="127" y="43"/>
      <point x="81" y="33" type="curve" smooth="yes"/>
      <point x="30" y="22" type="line"/>
    </contour>
  </outline>
</glyph>
<glyph name="H" format="2">
  <advance width="876"/>
  <unicode hex="0048"/>
  <outline>
    <contour>
      <point x="496" y="0" type="line"/>
      <point x="846" y="0" type="line"/>
      <point x="846" y="22" type="line"/>
      <point x="795" y="33" type="line" smooth="yes"/>
      <point x="749" y="43"/>
      <point x="741" y="50"/>
      <point x="741" y="92" type="curve" smooth="yes"/>
      <point x="741" y="581" type="line" smooth="yes"/>
      <point x="741" y="623"/>
      <point x="749" y="630"/>
      <point x="795" y="640" type="curve" smooth="yes"/>
      <point x="846" y="651" type="line"/>
      <point x="846" y="673" type="line"/>
      <point x="496" y="673" type="line"/>
      <point x="496" y="651" type="line"/>
      <point x="547" y="640" type="line" smooth="yes"/>
      <point x="593" y="630"/>
      <point x="601" y="623"/>
      <point x="601" y="581" type="curve" smooth="yes"/>
      <point x="601" y="92" type="line" smooth="yes"/>
      <point x="601" y="50"/>
      <point x="593" y="43"/>
      <point x="547" y="33" type="curve" smooth="yes"/>
      <point x="496" y="22" type="line"/>
    </contour>
    <contour>
      <point x="30" y="0" type="line"/>
      <point x="380" y="0" type="line"/>
      <point x="380" y="22" type="line"/>
      <point x="329" y="33" type="line" smooth="yes"/>
      <point x="283" y="43"/>
      <point x="275" y="50"/>
      <point x="275" y="92" type="curve" smooth="yes"/>
      <point x="275" y="581" type="line" smooth="yes"/>
      <point x="275" y="623"/>
      <point x="283" y="630"/>
      <point x="329" y="640" type="curve" smooth="yes"/>
      <point x="380" y="651" type="line"/>
      <point x="380" y="673" type="line"/>
      <point x="30" y="673" type="line"/>
      <point x="30" y="651" type="line"/>
      <point x="81" y="640" type="line" smooth="yes"/>
      <point x="127" y="630"/>
      <point x="135" y="623"/>
      <point x="135" y="581" type="curve" smooth="yes"/>
      <point x="135" y="92" type="line" smooth="yes"/>
      <point x="135" y="50"/>
      <point x="127" y="43"/>
      <point x="81" y="33" type="curve" smooth="yes"/>
      <point x="30" y="22" type="line"/>
    </contour>
    <contour>
      <point x="257" y="341" type="line"/>
      <point x="641" y="341" type="line"/>
      <point x="641" y="374" type="line"/>
      <point x="257" y="374" type="line"/>
    </contour>
  </outline>
</glyph>
<glyph name="I" format="2">
  <advance width="410"/>
  <unicode hex="0049"/>
  <anchor x="175" y="-52" name="ogonek"/>
  <anchor x="205" y="690" name="topcase"/>
  <outline>
    <contour>
      <point x="30" y="0" type="line"/>
      <point x="380" y="0" type="line"/>
      <point x="380" y="22" type="line"/>
      <point x="329" y="33" type="line" smooth="yes"/>
      <point x="283" y="43"/>
      <point x="275" y="50"/>
      <point x="275" y="92" type="curve" smooth="yes"/>
      <point x="275" y="581" type="line" smooth="yes"/>
      <point x="275" y="623"/>
      <point x="283" y="630"/>
      <point x="329" y="640" type="curve" smooth="yes"/>
      <point x="380" y="651" type="line"/>
      <point x="380" y="673" type="line"/>
      <point x="30" y="673" type="line"/>
      <point x="30" y="651" type="line"/>
      <point x="81" y="640" type="line" smooth="yes"/>
      <point x="127" y="630"/>
      <point x="135" y="623"/>
      <point x="135" y="581" type="curve" smooth="yes"/>
      <point x="135" y="92" type="line" smooth="yes"/>
      <point x="135" y="50"/>
      <point x="127" y="43"/>
      <point x="81" y="33" type="curve" smooth="yes"/>
      <point x="30" y="22" type="line"/>
    </contour>
  </outline>
</glyph>
<glyph name="O" format="2">
  <advance width="796"/>
  <unicode hex="004F"/>
  <guideline x="459" y="748" angle="0"/>
  <anchor x="397" y="690" name="topcase"/>
  <outline>
    <contour>
      <point x="397" y="-11" type="curve" smooth="yes"/>
      <point x="606" y="-11"/>
      <point x="756" y="140"/>
      <point x="756" y="342" type="curve" smooth="yes"/>
      <point x="756" y="530"/>
      <point x="606" y="683"/>
      <point x="397" y="683" type="curve" smooth="yes"/>
      <point x="190" y="683"/>
      <point x="40" y="532"/>
      <point x="40" y="329" type="curve" smooth="yes"/>
      <point x="40" y="141"/>
      <point x="190" y="-11"/>
    </contour>
    <contour>
      <point x="397" y="24" type="curve" smooth="yes"/>
      <point x="275" y="24"/>
      <point x="193" y="149"/>
      <point x="193" y="329" type="curve" smooth="yes"/>
      <point x="193" y="524"/>
      <point x="275" y="648"/>
      <point x="397" y="648" type="curve" smooth="yes"/>
      <point x="522" y="648"/>
      <point x="603" y="523"/>
      <point x="603" y="341" type="curve" smooth="yes"/>
      <point x="603" y="148"/>
      <point x="522" y="24"/>
    </contour>
  </outline>
</glyph>
<glyph name="P" format="2">
  <advance width="658"/>
  <unicode hex="0050"/>
  <outline>
    <contour>
      <point x="30" y="0" type="line"/>
      <point x="389" y="0" type="line"/>
      <point x="389" y="22" type="line"/>
      <point x="329" y="33" type="line" smooth="yes"/>
      <point x="283" y="41"/>
      <point x="275" y="50"/>
      <point x="275" y="92" type="curve" smooth="yes"/>
      <point x="275" y="640" type="line"/>
      <point x="311" y="640" type="line" smooth="yes"/>
      <point x="424" y="640"/>
      <point x="493" y="591"/>
      <point x="493" y="464" type="curve" smooth="yes"/>
      <point x="493" y="333"/>
      <point x="414" y="287"/>
      <point x="322" y="281" type="curve"/>
      <point x="323" y="274" type="line"/>
      <point x="433" y="244"/>
      <point x="633" y="303"/>
      <point x="633" y="467" type="curve" smooth="yes"/>
      <point x="633" y="589"/>
      <point x="525" y="673"/>
      <point x="342" y="673" type="curve" smooth="yes"/>
      <point x="30" y="673" type="line"/>
      <point x="30" y="651" type="line"/>
      <point x="81" y="640" type="line" smooth="yes"/>
      <point x="127" y="630"/>
      <point x="135" y="623"/>
      <point x="135" y="581" type="curve" smooth="yes"/>
      <point x="135" y="92" type="line" smooth="yes"/>
      <point x="135" y="50"/>
      <point x="127" y="43"/>
      <point x="81" y="33" type="curve" smooth="yes"/>
      <point x="30" y="22" type="line"/>
    </contour>
  </outline>
</glyph>
<glyph name="Q" format="2">
  <advance width="799"/>
  <unicode hex="0051"/>
  <outline>
    <contour>
      <point x="530" y="25" type="curve"/>
      <point x="339" y="-1" type="line"/>
      <point x="443" y="-105"/>
      <point x="573" y="-150"/>
      <point x="725" y="-150" type="curve" smooth="yes"/>
      <point x="786" y="-150"/>
      <point x="836" y="-145"/>
      <point x="885" y="-135" type="curve"/>
      <point x="878" y="-115" type="line"/>
      <point x="743" y="-115"/>
      <point x="574" y="-43"/>
    </contour>
    <component base="O"/>
  </outline>
</glyph>
<glyph name="R" format="2">
  <advance width="792"/>
  <unicode hex="0052"/>
  <anchor x="339" y="690" name="topcase"/>
  <outline>
    <contour>
      <point x="708" y="-15" type="curve" smooth="yes"/>
      <point x="733" y="-15"/>
      <point x="759" y="-12"/>
      <point x="787" y="-5" type="curve"/>
      <point x="787" y="19" type="line"/>
      <point x="728" y="19"/>
      <point x="677" y="84"/>
      <point x="625" y="159" type="curve" smooth="yes"/>
      <point x="572" y="236"/>
      <point x="514" y="310"/>
      <point x="422" y="314" type="curve"/>
      <point x="422" y="316" type="line"/>
      <point x="534" y="327"/>
      <point x="629" y="396"/>
      <point x="629" y="489" type="curve" smooth="yes"/>
      <point x="629" y="606"/>
      <point x="510" y="673"/>
      <point x="310" y="673" type="curve" smooth="yes"/>
      <point x="30" y="673" type="line"/>
      <point x="30" y="651" type="line"/>
      <point x="81" y="640" type="line" smooth="yes"/>
      <point x="127" y="630"/>
      <point x="135" y="623"/>
      <point x="135" y="581" type="curve" smooth="yes"/>
      <point x="135" y="92" type="line" smooth="yes"/>
      <point x="135" y="50"/>
      <point x="127" y="43"/>
      <point x="81" y="33" type="curve" smooth="yes"/>
      <point x="30" y="22" type="line"/>
      <point x="30" y="0" type="line"/>
      <point x="380" y="0" type="line"/>
      <point x="380" y="22" type="line"/>
      <point x="329" y="33" type="line" smooth="yes"/>
      <point x="283" y="43"/>
      <point x="275" y="50"/>
      <point x="275" y="92" type="curve" smooth="yes"/>
      <point x="275" y="294" type="line"/>
      <point x="298" y="294" type="line" smooth="yes"/>
      <point x="386" y="294"/>
      <point x="431" y="209"/>
      <point x="482" y="134" type="curve" smooth="yes"/>
      <point x="554" y="27"/>
      <point x="623" y="-15"/>
    </contour>
    <contour>
      <point x="275" y="327" type="line"/>
      <point x="275" y="640" type="line"/>
      <point x="297" y="640" type="line" smooth="yes"/>
      <point x="418" y="640"/>
      <point x="487" y="584"/>
      <point x="487" y="479" type="curve" smooth="yes"/>
      <point x="487" y="375"/>
      <point x="406" y="327"/>
      <point x="310" y="327" type="curve" smooth="yes"/>
    </contour>
  </outline>
</glyph>
<glyph name="S" format="2">
  <advance width="583"/>
  <unicode hex="0053"/>
  <anchor x="291" y="690" name="topcase"/>
  <outline>
    <contour>
      <point x="301" y="-11" type="curve" smooth="yes"/>
      <point x="437" y="-11"/>
      <point x="528" y="70"/>
      <point x="528" y="196" type="curve" smooth="yes"/>
      <point x="528" y="296"/>
      <point x="481" y="349"/>
      <point x="335" y="398" type="curve" smooth="yes"/>
      <point x="196" y="444"/>
      <point x="167" y="466"/>
      <point x="167" y="536" type="curve" smooth="yes"/>
      <point x="167" y="592"/>
      <point x="210" y="650"/>
      <point x="289" y="650" type="curve" smooth="yes"/>
      <point x="374" y="650"/>
      <point x="443" y="582"/>
      <point x="474" y="467" type="curve"/>
      <point x="501" y="467" type="line"/>
      <point x="501" y="467"/>
      <point x="483" y="531"/>
      <point x="483" y="594" type="curve" smooth="yes"/>
      <point x="483" y="610"/>
      <point x="484" y="630"/>
      <point x="487" y="644" type="curve"/>
      <point x="484" y="646" type="line"/>
      <point x="452" y="640" type="line"/>
      <point x="435" y="640"/>
      <point x="420" y="649"/>
      <point x="400" y="658" type="curve" smooth="yes"/>
      <point x="376" y="670"/>
      <point x="344" y="683"/>
      <point x="291" y="683" type="curve" smooth="yes"/>
      <point x="144" y="683"/>
      <point x="66" y="590"/>
      <point x="66" y="487" type="curve" smooth="yes"/>
      <point x="66" y="380"/>
      <point x="132" y="330"/>
      <point x="253" y="289" type="curve" smooth="yes"/>
      <point x="397" y="240"/>
      <point x="435" y="212"/>
      <point x="435" y="139" type="curve" smooth="yes"/>
      <point x="435" y="54"/>
      <point x="359" y="22"/>
      <point x="301" y="22" type="curve" smooth="yes"/>
      <point x="171" y="22"/>
      <point x="95" y="112"/>
      <point x="85" y="236" type="curve"/>
      <point x="50" y="236" type="line"/>
      <point x="66" y="173"/>
      <point x="66" y="108"/>
      <point x="55" y="50" type="curve"/>
      <point x="103" y="26"/>
      <point x="186" y="-11"/>
    </contour>
  </outline>
</glyph>
<glyph name="T" format="2">
  <advance width="704"/>
  <unicode hex="0054"/>
  <anchor x="344" y="690" name="topcase"/>
  <outline>
    <contour>
      <point x="177" y="0" type="line"/>
      <point x="527" y="0" type="line"/>
      <point x="527" y="22" type="line"/>
      <point x="476" y="33" type="line" smooth="yes"/>
      <point x="430" y="43"/>
      <point x="422" y="50"/>
      <point x="422" y="92" type="curve" smooth="yes"/>
      <point x="422" y="640" type="line"/>
      <point x="495" y="640" type="line" smooth="yes"/>
      <point x="582" y="640"/>
      <point x="645" y="564"/>
      <point x="667" y="476" type="curve"/>
      <point x="694" y="476" type="line"/>
      <point x="683" y="530"/>
      <point x="672" y="613"/>
      <point x="682" y="673" type="curve"/>
      <point x="22" y="673" type="line"/>
      <point x="32" y="613"/>
      <point x="21" y="530"/>
      <point x="10" y="476" type="curve"/>
      <point x="37" y="476" type="line"/>
      <point x="59" y="564"/>
      <point x="122" y="640"/>
      <point x="209" y="640" type="curve"/>
      <point x="282" y="640" type="line"/>
      <point x="282" y="92" type="line" smooth="yes"/>
      <point x="282" y="50"/>
      <point x="274" y="43"/>
      <point x="228" y="33" type="curve" smooth="yes"/>
      <point x="177" y="22" type="line"/>
    </contour>
  </outline>
</glyph>
<glyph name="V" format="2">
  <advance width="780"/>
  <unicode hex="0056"/>
  <outline>
    <contour>
      <point x="362" y="-15" type="line"/>
      <point x="410" y="-15" type="line"/>
      <point x="660" y="602" type="line" smooth="yes"/>
      <point x="669" y="625"/>
      <point x="686" y="633"/>
      <point x="712" y="638" type="curve" smooth="yes"/>
      <point x="775" y="651" type="line"/>
      <point x="775" y="673" type="line"/>
      <point x="496" y="673" type="line"/>
      <point x="496" y="651" type="line"/>
      <point x="571" y="634" type="line" smooth="yes"/>
      <point x="600" y="628"/>
      <point x="615" y="619"/>
      <point x="615" y="602" type="curve" smooth="yes"/>
      <point x="615" y="597"/>
      <point x="613" y="591"/>
      <point x="611" y="585" type="curve" smooth="yes"/>
      <point x="422" y="121" type="line"/>
      <point x="449" y="121" type="line"/>
      <point x="270" y="582" type="line" smooth="yes"/>
      <point x="267" y="590"/>
      <point x="265" y="598"/>
      <point x="265" y="604" type="curve" smooth="yes"/>
      <point x="265" y="623"/>
      <point x="281" y="633"/>
      <point x="314" y="640" type="curve" smooth="yes"/>
      <point x="365" y="651" type="line"/>
      <point x="365" y="673" type="line"/>
      <point x="5" y="673" type="line"/>
      <point x="5" y="651" type="line"/>
      <point x="60" y="639" type="line" smooth="yes"/>
      <point x="76" y="636"/>
      <point x="91" y="629"/>
      <point x="97" y="614" type="curve" smooth="yes"/>
    </contour>
  </outline>
</glyph>
<glyph name="W" format="2">
  <advance width="1142"/>
  <unicode hex="0057"/>
  <anchor x="604" y="690" name="topcase"/>
  <outline>
    <contour>
      <point x="340" y="-15" type="line"/>
      <point x="388" y="-15" type="line"/>
      <point x="560" y="473" type="line"/>
      <point x="746" y="-15" type="line"/>
      <point x="794" y="-15" type="line"/>
      <point x="1018" y="597" type="line" smooth="yes"/>
      <point x="1026" y="620"/>
      <point x="1045" y="632"/>
      <point x="1071" y="637" type="curve" smooth="yes"/>
      <point x="1134" y="651" type="line"/>
      <point x="1134" y="673" type="line"/>
      <point x="855" y="673" type="line"/>
      <point x="855" y="651" type="line"/>
      <point x="917" y="637" type="line" smooth="yes"/>
      <point x="974" y="624"/>
      <point x="982" y="618"/>
      <point x="974" y="595" type="curve" smooth="yes"/>
      <point x="820" y="160" type="line"/>
      <point x="676" y="591" type="line" smooth="yes"/>
      <point x="666" y="620"/>
      <point x="684" y="633"/>
      <point x="708" y="638" type="curve" smooth="yes"/>
      <point x="771" y="651" type="line"/>
      <point x="771" y="673" type="line"/>
      <point x="454" y="673" type="line"/>
      <point x="454" y="651" type="line"/>
      <point x="524" y="638" type="line" smooth="yes"/>
      <point x="550" y="633"/>
      <point x="565" y="617"/>
      <point x="556" y="591" type="curve" smooth="yes"/>
      <point x="412" y="166" type="line"/>
      <point x="273" y="582" type="line" smooth="yes"/>
      <point x="260" y="616"/>
      <point x="272" y="631"/>
      <point x="317" y="640" type="curve" smooth="yes"/>
      <point x="368" y="651" type="line"/>
      <point x="368" y="673" type="line"/>
      <point x="8" y="673" type="line"/>
      <point x="8" y="651" type="line"/>
      <point x="63" y="639" type="line" smooth="yes"/>
      <point x="88" y="634"/>
      <point x="96" y="624"/>
      <point x="103" y="607" type="curve" smooth="yes"/>
    </contour>
  </outline>
</glyph>
<glyph name="Y" format="2">
  <advance width="748"/>
  <unicode hex="0059"/>
  <anchor x="414" y="690" name="topcase"/>
  <outline>
    <contour>
      <point x="339" y="250" type="line"/>
      <point x="382" y="257" type="line"/>
      <point x="618" y="602" type="line"/>
      <point x="627" y="625"/>
      <point x="644" y="633"/>
      <point x="670" y="638" type="curve" smooth="yes"/>
      <point x="733" y="651" type="line"/>
      <point x="733" y="673" type="line"/>
      <point x="454" y="673" type="line"/>
      <point x="454" y="651" type="line"/>
      <point x="539" y="632" type="line" smooth="yes"/>
      <point x="570" y="625"/>
      <point x="573" y="612"/>
      <point x="562" y="596" type="curve" smooth="yes"/>
      <point x="407" y="373" type="line"/>
      <point x="424" y="373" type="line"/>
      <point x="291" y="585" type="line" smooth="yes"/>
      <point x="270" y="618"/>
      <point x="292" y="633"/>
      <point x="324" y="640" type="curve" smooth="yes"/>
      <point x="375" y="651" type="line"/>
      <point x="375" y="673" type="line"/>
      <point x="15" y="673" type="line"/>
      <point x="15" y="651" type="line"/>
      <point x="68" y="639" type="line" smooth="yes"/>
      <point x="84" y="636"/>
      <point x="96" y="627"/>
      <point x="105" y="614" type="curve" smooth="yes"/>
    </contour>
    <contour>
      <point x="189" y="0" type="line"/>
      <point x="539" y="0" type="line"/>
      <point x="539" y="22" type="line"/>
      <point x="488" y="33" type="line" smooth="yes"/>
      <point x="442" y="43"/>
      <point x="434" y="50"/>
      <point x="434" y="92" type="curve" smooth="yes"/>
      <point x="434" y="361" type="line"/>
      <point x="294" y="353" type="line"/>
      <point x="294" y="92" type="line" smooth="yes"/>
      <point x="294" y="50"/>
      <point x="286" y="43"/>
      <point x="240" y="33" type="curve" smooth="yes"/>
      <point x="189" y="22" type="line"/>
    </contour>
  </outline>
</glyph>
<glyph name="backslash" format="2">
  <advance width="446"/>
  <unicode hex="005C"/>
  <outline>
    <contour>
      <point x="421" y="-7" type="line"/>
      <point x="77" y="710" type="line"/>
      <point x="25" y="710" type="line"/>
      <point x="369" y="-7" type="line"/>
    </contour>
  </outline>
</glyph>
<glyph name="bracketright" format="2">
  <advance width="260"/>
  <unicode hex="005D"/>
  <outline>
    <contour>
      <point x="230" y="-214" type="line"/>
      <point x="230" y="744" type="line"/>
      <point x="25" y="744" type="line"/>
      <point x="25" y="694" type="line"/>
      <point x="135" y="694" type="line"/>
      <point x="135" y="-164" type="line"/>
      <point x="25" y="-164" type="line"/>
      <point x="25" y="-214" type="line"/>
    </contour>
  </outline>
</glyph>
<glyph name="asciicircum" format="2">
  <advance width="576"/>
  <unicode hex="005E"/>
  <outline>
    <contour>
      <point x="30" y="289" type="line"/>
      <point x="118" y="289" type="line"/>
      <point x="316" y="622" type="line"/>
      <point x="260" y="622" type="line"/>
      <point x="458" y="289" type="line"/>
      <point x="546" y="289" type="line"/>
      <point x="326" y="677" type="line"/>
      <point x="250" y="677" type="line"/>
    </contour>
  </outline>
</glyph>
<glyph name="d" format="2">
  <advance width="565"/>
  <unicode hex="0064"/>
  <outline>
    <contour>
      <point x="244" y="-8" type="curve" smooth="yes"/>
      <point x="257" y="-8"/>
      <point x="273" y="-2"/>
      <point x="282" y="3" type="curve" smooth="yes"/>
      <point x="369" y="52" type="line"/>
      <point x="373" y="52" type="line"/>
      <point x="381" y="-3" type="line"/>
      <point x="391" y="-8" type="line"/>
      <point x="449" y="-1"/>
      <point x="496" y="7"/>
      <point x="553" y="9" type="curve"/>
      <point x="553" y="35" type="line"/>
      <point x="500" y="35"/>
      <point x="479" y="52"/>
      <point x="479" y="96" type="curve" smooth="yes"/>
      <point x="479" y="618" type="line" smooth="yes"/>
      <point x="479" y="654"/>
      <point x="484" y="687"/>
      <point x="493" y="702" type="curve"/>
      <point x="483" y="710" type="line"/>
      <point x="425" y="689"/>
      <point x="379" y="682"/>
      <point x="303" y="672" type="curve"/>
      <point x="303" y="654" type="line"/>
      <point x="335" y="646" type="line" smooth="yes"/>
      <point x="352" y="642"/>
      <point x="362" y="636"/>
      <point x="362" y="608" type="curve" smooth="yes"/>
      <point x="362" y="426" type="line"/>
      <point x="334" y="440"/>
      <point x="292" y="451"/>
      <point x="248" y="451" type="curve" smooth="yes"/>
      <point x="96" y="451"/>
      <point x="25" y="329"/>
      <point x="25" y="213" type="curve" smooth="yes"/>
      <point x="25" y="97"/>
      <point x="94" y="-8"/>
    </contour>
    <contour>
      <point x="276" y="63" type="curve" smooth="yes"/>
      <point x="191" y="63"/>
      <point x="153" y="154"/>
      <point x="153" y="251" type="curve" smooth="yes"/>
      <point x="153" y="336"/>
      <point x="187" y="416"/>
      <point x="262" y="416" type="curve" smooth="yes"/>
      <point x="315" y="416"/>
      <point x="362" y="357"/>
      <point x="362" y="287" type="curve" smooth="yes"/>
      <point x="362" y="150" type="line" smooth="yes"/>
      <point x="362" y="103"/>
      <point x="330" y="63"/>
    </contour>
  </outline>
</glyph>
<glyph name="e" format="2">
  <advance width="458"/>
  <unicode hex="0065"/>
  <anchor x="222" y="-50" name="bottom"/>
  <anchor x="221" y="-50" name="ogonek"/>
  <anchor x="263" y="470" name="top"/>
  <outline>
    <contour>
      <point x="245" y="-8" type="curve" smooth="yes"/>
      <point x="317" y="-8"/>
      <point x="379" y="25"/>
      <point x="433" y="99" type="curve"/>
      <point x="416" y="115" type="line"/>
      <point x="376" y="81"/>
      <point x="339" y="65"/>
      <point x="298" y="65" type="curve" smooth="yes"/>
      <point x="219" y="65"/>
      <point x="153" y="126"/>
      <point x="153" y="239" type="curve" smooth="yes"/>
      <point x="153" y="347"/>
      <point x="190" y="420"/>
      <point x="251" y="420" type="curve" smooth="yes"/>
      <point x="291" y="420"/>
      <point x="317" y="376"/>
      <point x="317" y="306" type="curve" smooth="yes"/>
      <point x="317" y="293"/>
      <point x="314" y="285"/>
      <point x="303" y="285" type="curve"/>
      <point x="86" y="276" type="line"/>
      <point x="86" y="240" type="line"/>
      <point x="410" y="240" type="line" smooth="yes"/>
      <point x="426" y="240"/>
      <point x="433" y="251"/>
      <point x="433" y="265" type="curve" smooth="yes"/>
      <point x="433" y="371"/>
      <point x="362" y="452"/>
      <point x="257" y="452" type="curve" smooth="yes"/>
      <point x="124" y="452"/>
      <point x="25" y="355"/>
      <point x="25" y="216" type="curve" smooth="yes"/>
      <point x="25" y="91"/>
      <point x="117" y="-8"/>
    </contour>
  </outline>
</glyph>
<glyph name="h" format="2">
  <advance width="570"/>
  <unicode hex="0068"/>
  <outline>
    <contour>
      <point x="325" y="0" type="line"/>
      <point x="560" y="0" type="line"/>
      <point x="560" y="17" type="line"/>
      <point x="528" y="29" type="line" smooth="yes"/>
      <point x="517" y="33"/>
      <point x="501" y="43"/>
      <point x="501" y="62" type="curve" smooth="yes"/>
      <point x="501" y="312" type="line" smooth="yes"/>
      <point x="501" y="402"/>
      <point x="446" y="451"/>
      <point x="352" y="451" type="curve" smooth="yes"/>
      <point x="344" y="451"/>
      <point x="333" y="449"/>
      <point x="327" y="445" type="curve" smooth="yes"/>
      <point x="286" y="421"/>
      <point x="245" y="399"/>
      <point x="205" y="380" type="curve"/>
      <point x="191" y="380" type="line"/>
      <point x="206" y="275" type="line"/>
      <point x="206" y="330"/>
      <point x="239" y="369"/>
      <point x="296" y="369" type="curve" smooth="yes"/>
      <point x="353" y="369"/>
      <point x="384" y="337"/>
      <point x="384" y="278" type="curve" smooth="yes"/>
      <point x="384" y="69" type="line" smooth="yes"/>
      <point x="384" y="50"/>
      <point x="375" y="36"/>
      <point x="357" y="29" type="curve" smooth="yes"/>
      <point x="325" y="17" type="line"/>
    </contour>
    <contour>
      <point x="30" y="0" type="line"/>
      <point x="265" y="0" type="line"/>
      <point x="265" y="17" type="line"/>
      <point x="233" y="29" type="line" smooth="yes"/>
      <point x="222" y="33"/>
      <point x="206" y="43"/>
      <point x="206" y="62" type="curve" smooth="yes"/>
      <point x="206" y="618" type="line" smooth="yes"/>
      <point x="206" y="654"/>
      <point x="211" y="687"/>
      <point x="220" y="702" type="curve"/>
      <point x="210" y="710" type="line"/>
      <point x="152" y="689"/>
      <point x="106" y="682"/>
      <point x="30" y="672" type="curve"/>
      <point x="30" y="654" type="line"/>
      <point x="62" y="646" type="line" smooth="yes"/>
      <point x="79" y="642"/>
      <point x="89" y="636"/>
      <point x="89" y="608" type="curve" smooth="yes"/>
      <point x="89" y="69" type="line" smooth="yes"/>
      <point x="89" y="50"/>
      <point x="80" y="36"/>
      <point x="62" y="29" type="curve" smooth="yes"/>
      <point x="30" y="17" type="line"/>
    </contour>
  </outline>
</glyph>
<glyph name="o" format="2">
  <advance width="501"/>
  <unicode hex="006F"/>
  <anchor x="250" y="470" name="top"/>
  <outline>
    <contour>
      <point x="250" y="-8" type="curve" smooth="yes"/>
      <point x="386" y="-8"/>
      <point x="476" y="89"/>
      <point x="476" y="226" type="curve" smooth="yes"/>
      <point x="476" y="354"/>
      <point x="386" y="451"/>
      <point x="250" y="451" type="curve" smooth="yes"/>
      <point x="115" y="451"/>
      <point x="25" y="355"/>
      <point x="25" y="218" type="curve" smooth="yes"/>
      <point x="25" y="90"/>
      <point x="115" y="-8"/>
    </contour>
    <contour>
      <point x="251" y="24" type="curve" smooth="yes"/>
      <point x="186" y="24"/>
      <point x="153" y="94"/>
      <point x="153" y="229" type="curve" smooth="yes"/>
      <point x="153" y="360"/>
      <point x="186" y="419"/>
      <point x="249" y="419" type="curve" smooth="yes"/>
      <point x="315" y="419"/>
      <point x="348" y="350"/>
      <point x="348" y="215" type="curve" smooth="yes"/>
      <point x="348" y="84"/>
      <point x="315" y="24"/>
    </contour>
  </outline>
</glyph>
<glyph name="p" format="2">
  <advance width="558"/>
  <unicode hex="0070"/>
  <outline>
    <contour>
      <point x="20" y="-250" type="line"/>
      <point x="265" y="-250" type="line"/>
      <point x="265" y="-233" type="line"/>
      <point x="228" y="-221" type="line" smooth="yes"/>
      <point x="206" y="-213"/>
      <point x="196" y="-203"/>
      <point x="196" y="-188" type="curve" smooth="yes"/>
      <point x="196" y="16" type="line"/>
      <point x="224" y="2"/>
      <point x="266" y="-9"/>
      <point x="310" y="-9" type="curve" smooth="yes"/>
      <point x="462" y="-9"/>
      <point x="533" y="113"/>
      <point x="533" y="229" type="curve" smooth="yes"/>
      <point x="533" y="343"/>
      <point x="461" y="451"/>
      <point x="312" y="451" type="curve" smooth="yes"/>
      <point x="299" y="451"/>
      <point x="284" y="445"/>
      <point x="274" y="439" type="curve" smooth="yes"/>
      <point x="191" y="390" type="line"/>
      <point x="189" y="390" type="line"/>
      <point x="191" y="416"/>
      <point x="196" y="438"/>
      <point x="203" y="449" type="curve"/>
      <point x="193" y="457" type="line"/>
      <point x="135" y="436"/>
      <point x="97" y="431"/>
      <point x="20" y="419" type="curve"/>
      <point x="20" y="401" type="line"/>
      <point x="52" y="393" type="line" smooth="yes"/>
      <point x="69" y="389"/>
      <point x="79" y="383"/>
      <point x="79" y="355" type="curve" smooth="yes"/>
      <point x="79" y="-181" type="line" smooth="yes"/>
      <point x="79" y="-202"/>
      <point x="72" y="-213"/>
      <point x="52" y="-221" type="curve" smooth="yes"/>
      <point x="20" y="-233" type="line"/>
    </contour>
    <contour>
      <point x="296" y="26" type="curve" smooth="yes"/>
      <point x="243" y="26"/>
      <point x="196" y="85"/>
      <point x="196" y="155" type="curve" smooth="yes"/>
      <point x="196" y="292" type="line" smooth="yes"/>
      <point x="196" y="339"/>
      <point x="228" y="379"/>
      <point x="282" y="379" type="curve" smooth="yes"/>
      <point x="367" y="379"/>
      <point x="405" y="288"/>
      <point x="405" y="191" type="curve" smooth="yes"/>
      <point x="405" y="106"/>
      <point x="371" y="26"/>
    </contour>
  </outline>
</glyph>
<glyph name="q" format="2">
  <advance width="558"/>
  <unicode hex="0071"/>
  <outline>
    <contour>
      <point x="293" y="-250" type="line"/>
      <point x="538" y="-250" type="line"/>
      <point x="538" y="-233" type="line"/>
      <point x="506" y="-221" type="line" smooth="yes"/>
      <point x="486" y="-213"/>
      <point x="479" y="-202"/>
      <point x="479" y="-181" type="curve" smooth="yes"/>
      <point x="479" y="453" type="line"/>
      <point x="458" y="456" type="line"/>
      <point x="444" y="433"/>
      <point x="430" y="411"/>
      <point x="414" y="394" type="curve"/>
      <point x="379" y="426"/>
      <point x="319" y="451"/>
      <point x="262" y="451" type="curve" smooth="yes"/>
      <point x="100" y="451"/>
      <point x="25" y="330"/>
      <point x="25" y="213" type="curve" smooth="yes"/>
      <point x="25" y="97"/>
      <point x="94" y="-8"/>
      <point x="244" y="-8" type="curve" smooth="yes"/>
      <point x="257" y="-8"/>
      <point x="273" y="-2"/>
      <point x="282" y="3" type="curve" smooth="yes"/>
      <point x="362" y="48" type="line"/>
      <point x="362" y="-188" type="line" smooth="yes"/>
      <point x="362" y="-203"/>
      <point x="352" y="-213"/>
      <point x="330" y="-221" type="curve" smooth="yes"/>
      <point x="293" y="-233" type="line"/>
    </contour>
    <contour>
      <point x="276" y="63" type="curve" smooth="yes"/>
      <point x="191" y="63"/>
      <point x="153" y="154"/>
      <point x="153" y="251" type="curve" smooth="yes"/>
      <point x="153" y="336"/>
      <point x="187" y="416"/>
      <point x="262" y="416" type="curve" smooth="yes"/>
      <point x="315" y="416"/>
      <point x="362" y="357"/>
      <point x="362" y="287" type="curve" smooth="yes"/>
      <point x="362" y="150" type="line" smooth="yes"/>
      <point x="362" y="103"/>
      <point x="330" y="63"/>
    </contour>
  </outline>
</glyph>
<glyph name="w" format="2">
  <advance width="759"/>
  <unicode hex="0077"/>
  <anchor x="408" y="470" name="top"/>
  <outline>
    <contour>
      <point x="238" y="-8" type="line"/>
      <point x="268" y="-8" type="line"/>
      <point x="377" y="261" type="line"/>
      <point x="489" y="-8" type="line"/>
      <point x="519" y="-8" type="line"/>
      <point x="681" y="391" type="line" smooth="yes"/>
      <point x="686" y="403"/>
      <point x="693" y="408"/>
      <point x="710" y="413" type="curve" smooth="yes"/>
      <point x="751" y="425" type="line"/>
      <point x="751" y="442" type="line"/>
      <point x="567" y="442" type="line"/>
      <point x="567" y="425" type="line"/>
      <point x="612" y="417" type="line" smooth="yes"/>
      <point x="634" y="413"/>
      <point x="638" y="404"/>
      <point x="630" y="385" type="curve" smooth="yes"/>
      <point x="544" y="147" type="line"/>
      <point x="454" y="381" type="line" smooth="yes"/>
      <point x="445" y="404"/>
      <point x="448" y="412"/>
      <point x="465" y="417" type="curve"/>
      <point x="507" y="425" type="line"/>
      <point x="507" y="442" type="line"/>
      <point x="316" y="442" type="line"/>
      <point x="316" y="425" type="line"/>
      <point x="361" y="417" type="line" smooth="yes"/>
      <point x="383" y="413"/>
      <point x="387" y="404"/>
      <point x="379" y="385" type="curve" smooth="yes"/>
      <point x="293" y="147" type="line"/>
      <point x="205" y="376" type="line" smooth="yes"/>
      <point x="196" y="401"/>
      <point x="205" y="411"/>
      <point x="226" y="417" type="curve" smooth="yes"/>
      <point x="255" y="425" type="line"/>
      <point x="255" y="442" type="line"/>
      <point x="8" y="442" type="line"/>
      <point x="8" y="425" type="line"/>
      <point x="39" y="418" type="line" smooth="yes"/>
      <point x="55" y="414"/>
      <point x="64" y="409"/>
      <point x="69" y="397" type="curve" smooth="yes"/>
    </contour>
  </outline>
</glyph>
<glyph name="x" format="2">
  <advance width="512"/>
  <unicode hex="0078"/>
  <outline>
    <contour>
      <point x="5" y="0" type="line"/>
      <point x="185" y="0" type="line"/>
      <point x="185" y="17" type="line"/>
      <point x="141" y="26" type="line" smooth="yes"/>
      <point x="119" y="30"/>
      <point x="122" y="41"/>
      <point x="134" y="58" type="curve" smooth="yes"/>
      <point x="245" y="224" type="line"/>
      <point x="191" y="225" type="line"/>
      <point x="296" y="62" type="line" smooth="yes"/>
      <point x="308" y="43"/>
      <point x="301" y="30"/>
      <point x="265" y="22" type="curve" smooth="yes"/>
      <point x="244" y="17" type="line"/>
      <point x="244" y="0" type="line"/>
      <point x="507" y="0" type="line"/>
      <point x="507" y="17" type="line"/>
      <point x="476" y="24" type="line" smooth="yes"/>
      <point x="460" y="28"/>
      <point x="448" y="39"/>
      <point x="440" y="50" type="curve" smooth="yes"/>
      <point x="300" y="258" type="line"/>
      <point x="294" y="214" type="line"/>
      <point x="421" y="392" type="line" smooth="yes"/>
      <point x="429" y="404"/>
      <point x="440" y="411"/>
      <point x="457" y="416" type="curve" smooth="yes"/>
      <point x="489" y="425" type="line"/>
      <point x="489" y="442" type="line"/>
      <point x="315" y="442" type="line"/>
      <point x="315" y="425" type="line"/>
      <point x="359" y="416" type="line" smooth="yes"/>
      <point x="381" y="412"/>
      <point x="378" y="401"/>
      <point x="366" y="384" type="curve" smooth="yes"/>
      <point x="262" y="225" type="line"/>
      <point x="308" y="241" type="line"/>
      <point x="223" y="384" type="line" smooth="yes"/>
      <point x="215" y="398"/>
      <point x="220" y="411"/>
      <point x="244" y="417" type="curve" smooth="yes"/>
      <point x="275" y="425" type="line"/>
      <point x="275" y="442" type="line"/>
      <point x="15" y="442" type="line"/>
      <point x="15" y="425" type="line"/>
      <point x="46" y="418" type="line" smooth="yes"/>
      <point x="62" y="414"/>
      <point x="68" y="408"/>
      <point x="76" y="397" type="curve"/>
      <point x="207" y="188" type="line"/>
      <point x="207" y="231" type="line"/>
      <point x="77" y="50" type="line"/>
      <point x="68" y="39"/>
      <point x="58" y="31"/>
      <point x="41" y="26" type="curve"/>
      <point x="5" y="17" type="line"/>
    </contour>
  </outline>
</glyph>
<glyph name="y" format="2">
  <advance width="521"/>
  <unicode hex="0079"/>
  <anchor x="293" y="470" name="top"/>
  <outline>
    <contour>
      <point x="80" y="-260" type="curve" smooth="yes"/>
      <point x="117" y="-260"/>
      <point x="160" y="-241"/>
      <point x="199" y="-155" type="curve" smooth="yes"/>
      <point x="446" y="391" type="line" smooth="yes"/>
      <point x="451" y="403"/>
      <point x="458" y="408"/>
      <point x="475" y="413" type="curve" smooth="yes"/>
      <point x="516" y="425" type="line"/>
      <point x="516" y="442" type="line"/>
      <point x="332" y="442" type="line"/>
      <point x="332" y="425" type="line"/>
      <point x="377" y="417" type="line" smooth="yes"/>
      <point x="399" y="413"/>
      <point x="403" y="404"/>
      <point x="395" y="385" type="curve" smooth="yes"/>
      <point x="276" y="111" type="line"/>
      <point x="303" y="111" type="line"/>
      <point x="201" y="376" type="line" smooth="yes"/>
      <point x="191" y="403"/>
      <point x="208" y="414"/>
      <point x="230" y="420" type="curve" smooth="yes"/>
      <point x="251" y="425" type="line"/>
      <point x="251" y="442" type="line"/>
      <point x="4" y="442" type="line"/>
      <point x="4" y="425" type="line"/>
      <point x="35" y="418" type="line" smooth="yes"/>
      <point x="51" y="414"/>
      <point x="60" y="409"/>
      <point x="65" y="397" type="curve" smooth="yes"/>
      <point x="226" y="10" type="line"/>
      <point x="163" y="-130" type="line" smooth="yes"/>
      <point x="154" y="-150"/>
      <point x="146" y="-159"/>
      <point x="135" y="-159" type="curve" smooth="yes"/>
      <point x="128" y="-159"/>
      <point x="122" y="-155"/>
      <point x="113" y="-146" type="curve" smooth="yes"/>
      <point x="103" y="-136"/>
      <point x="89" y="-128"/>
      <point x="68" y="-128" type="curve" smooth="yes"/>
      <point x="33" y="-128"/>
      <point x="9" y="-158"/>
      <point x="9" y="-194" type="curve" smooth="yes"/>
      <point x="9" y="-226"/>
      <point x="33" y="-260"/>
    </contour>
  </outline>
</glyph>
<glyph name="braceleft" format="2">
  <advance width="347"/>
  <unicode hex="007B"/>
  <outline>
    <contour>
      <point x="327" y="-217" type="curve"/>
      <point x="327" y="-179" type="line"/>
      <point x="232" y="-176"/>
      <point x="176" y="-150"/>
      <point x="176" y="-57" type="curve" smooth="yes"/>
      <point x="176" y="-25"/>
      <point x="179" y="3"/>
      <point x="182" y="30" type="curve" smooth="yes"/>
      <point x="186" y="62"/>
      <point x="190" y="94"/>
      <point x="190" y="133" type="curve" smooth="yes"/>
      <point x="190" y="210"/>
      <point x="162" y="256"/>
      <point x="89" y="263" type="curve"/>
      <point x="89" y="264" type="line"/>
      <point x="162" y="271"/>
      <point x="190" y="317"/>
      <point x="190" y="394" type="curve" smooth="yes"/>
      <point x="190" y="427"/>
      <point x="187" y="455"/>
      <point x="184" y="483" type="curve" smooth="yes"/>
      <point x="180" y="515"/>
      <point x="176" y="546"/>
      <point x="176" y="584" type="curve" smooth="yes"/>
      <point x="176" y="677"/>
      <point x="232" y="703"/>
      <point x="327" y="706" type="curve"/>
      <point x="327" y="744" type="line"/>
      <point x="213" y="744"/>
      <point x="74" y="725"/>
      <point x="74" y="593" type="curve" smooth="yes"/>
      <point x="74" y="526"/>
      <point x="101" y="436"/>
      <point x="101" y="369" type="curve" smooth="yes"/>
      <point x="101" y="301"/>
      <point x="80" y="282"/>
      <point x="17" y="282" type="curve"/>
      <point x="17" y="245" type="line"/>
      <point x="80" y="245"/>
      <point x="101" y="226"/>
      <point x="101" y="158" type="curve" smooth="yes"/>
      <point x="101" y="91"/>
      <point x="74" y="1"/>
      <point x="74" y="-66" type="curve" smooth="yes"/>
      <point x="74" y="-198"/>
      <point x="213" y="-217"/>
    </contour>
  </outline>
</glyph>
<glyph name="braceright" format="2">
  <advance width="347"/>
  <unicode hex="007D"/>
  <outline>
    <contour>
      <point x="20" y="-217" type="line"/>
      <point x="134" y="-217"/>
      <point x="273" y="-198"/>
      <point x="273" y="-66" type="curve" smooth="yes"/>
      <point x="273" y="1"/>
      <point x="246" y="91"/>
      <point x="246" y="158" type="curve" smooth="yes"/>
      <point x="246" y="226"/>
      <point x="267" y="245"/>
      <point x="330" y="245" type="curve"/>
      <point x="330" y="282" type="line"/>
      <point x="267" y="282"/>
      <point x="246" y="301"/>
      <point x="246" y="369" type="curve" smooth="yes"/>
      <point x="246" y="436"/>
      <point x="273" y="526"/>
      <point x="273" y="593" type="curve" smooth="yes"/>
      <point x="273" y="725"/>
      <point x="134" y="744"/>
      <point x="20" y="744" type="curve"/>
      <point x="20" y="706" type="line"/>
      <point x="115" y="703"/>
      <point x="171" y="677"/>
      <point x="171" y="584" type="curve" smooth="yes"/>
      <point x="171" y="546"/>
      <point x="167" y="515"/>
      <point x="163" y="483" type="curve" smooth="yes"/>
      <point x="160" y="455"/>
      <point x="157" y="427"/>
      <point x="157" y="394" type="curve" smooth="yes"/>
      <point x="157" y="317"/>
      <point x="185" y="271"/>
      <point x="258" y="264" type="curve"/>
      <point x="258" y="263" type="line"/>
      <point x="185" y="256"/>
      <point x="157" y="210"/>
      <point x="157" y="133" type="curve" smooth="yes"/>
      <point x="157" y="94"/>
      <point x="161" y="62"/>
      <point x="165" y="30" type="curve" smooth="yes"/>
      <point x="168" y="3"/>
      <point x="171" y="-25"/>
      <point x="171" y="-57" type="curve" smooth="yes"/>
      <point x="171" y="-150"/>
      <point x="115" y="-176"/>
      <point x="20" y="-179" type="curve"/>
    </contour>
  </outline>
</glyph>
<glyph name="exclamdown" format="2">
  <advance width="249"/>
  <unicode hex="00A1"/>
  <outline>
    <contour>
      <point x="94" y="249" type="line"/>
      <point x="45" y="-170" type="line"/>
      <point x="200" y="-170" type="line"/>
      <point x="151" y="249" type="line"/>
    </contour>
    <contour>
      <point x="126" y="499" type="curve" smooth="yes"/>
      <point x="83" y="499"/>
      <point x="48" y="464"/>
      <point x="48" y="421" type="curve" smooth="yes"/>
      <point x="48" y="377"/>
      <point x="83" y="342"/>
      <point x="126" y="342" type="curve" smooth="yes"/>
      <point x="169" y="342"/>
      <point x="204" y="377"/>
      <point x="204" y="421" type="curve" smooth="yes"/>
      <point x="204" y="464"/>
      <point x="169" y="499"/>
    </contour>
  </outline>
</glyph>
<glyph name="cent" format="2">
  <advance width="453"/>
  <unicode hex="00A2"/>
  <outline>
    <contour>
      <point x="80" y="-99" type="line"/>
      <point x="377" y="551" type="line"/>
      <point x="346" y="564" type="line"/>
      <point x="49" y="-86" type="line"/>
    </contour>
    <component base="c"/>
  </outline>
</glyph>
<glyph name="sterling" format="2">
  <advance width="639"/>
  <unicode hex="00A3"/>
  <outline>
    <contour>
      <point x="47" y="-100" type="curve" smooth="yes"/>
      <point x="144" y="-100"/>
      <point x="294" y="185"/>
      <point x="348" y="425" type="curve" smooth="yes"/>
      <point x="389" y="605"/>
      <point x="433" y="652"/>
      <point x="487" y="652" type="curve" smooth="yes"/>
      <point x="504" y="652"/>
      <point x="526" y="648"/>
      <point x="526" y="632" type="curve" smooth="yes"/>
      <point x="526" y="624"/>
      <point x="521" y="615"/>
      <point x="517" y="606" type="curve"/>
      <point x="512" y="596"/>
      <point x="510" y="587"/>
      <point x="510" y="578" type="curve" smooth="yes"/>
      <point x="510" y="549"/>
      <point x="534" y="528"/>
      <point x="566" y="528" type="curve" smooth="yes"/>
      <point x="596" y="528"/>
      <point x="624" y="552"/>
      <point x="624" y="591" type="curve" smooth="yes"/>
      <point x="624" y="646"/>
      <point x="558" y="682"/>
      <point x="483" y="682" type="curve" smooth="yes"/>
      <point x="375" y="682"/>
      <point x="262" y="621"/>
      <point x="204" y="409" type="curve" smooth="yes"/>
      <point x="178" y="314"/>
      <point x="171" y="256"/>
      <point x="160" y="199" type="curve" smooth="yes"/>
      <point x="149" y="137"/>
      <point x="133" y="77"/>
      <point x="85" y="-28" type="curve"/>
      <point x="90" y="-27" type="line"/>
      <point x="96" y="-9"/>
      <point x="123" y="67"/>
      <point x="172" y="67" type="curve" smooth="yes"/>
      <point x="215" y="67"/>
      <point x="253" y="42"/>
      <point x="292" y="3" type="curve" smooth="yes"/>
      <point x="338" y="-41"/>
      <point x="404" y="-89"/>
      <point x="487" y="-89" type="curve" smooth="yes"/>
      <point x="577" y="-89"/>
      <point x="617" y="-1"/>
      <point x="617" y="68" type="curve" smooth="yes"/>
      <point x="617" y="120"/>
      <point x="597" y="149"/>
      <point x="559" y="149" type="curve" smooth="yes"/>
      <point x="525" y="149"/>
      <point x="510" y="126"/>
      <point x="510" y="99" type="curve" smooth="yes"/>
      <point x="510" y="82"/>
      <point x="520" y="65"/>
      <point x="530" y="48" type="curve" smooth="yes"/>
      <point x="540" y="31"/>
      <point x="550" y="14"/>
      <point x="550" y="-1" type="curve" smooth="yes"/>
      <point x="550" y="-34"/>
      <point x="535" y="-51"/>
      <point x="508" y="-51" type="curve" smooth="yes"/>
      <point x="483" y="-51"/>
      <point x="453" y="-12"/>
      <point x="417" y="23" type="curve" smooth="yes"/>
      <point x="351" y="86"/>
      <point x="304" y="123"/>
      <point x="216" y="123" type="curve" smooth="yes"/>
      <point x="92" y="123"/>
      <point x="15" y="-2"/>
      <point x="15" y="-63" type="curve" smooth="yes"/>
      <point x="15" y="-85"/>
      <point x="24" y="-100"/>
    </contour>
    <contour>
      <point x="41" y="245" type="line"/>
      <point x="433" y="245" type="line"/>
      <point x="433" y="281" type="line"/>
      <point x="41" y="281" type="line"/>
    </contour>
  </outline>
</glyph>
<glyph name="currency" format="2">
  <advance width="593"/>
  <unicode hex="00A4"/>
  <outline>
    <contour>
      <point x="297" y="151" type="curve" smooth="yes"/>
      <point x="418" y="151"/>
      <point x="493" y="238"/>
      <point x="493" y="344" type="curve" smooth="yes"/>
      <point x="493" y="450"/>
      <point x="418" y="537"/>
      <point x="297" y="537" type="curve" smooth="yes"/>
      <point x="175" y="537"/>
      <point x="100" y="450"/>
      <point x="100" y="344" type="curve" smooth="yes"/>
      <point x="100" y="238"/>
      <point x="175" y="151"/>
    </contour>
    <contour>
      <point x="86" y="87" type="line"/>
      <point x="202" y="203" type="line"/>
      <point x="166" y="259" type="line"/>
      <point x="40" y="133" type="line"/>
    </contour>
    <contour>
      <point x="161" y="433" type="line"/>
      <point x="207" y="479" type="line"/>
      <point x="86" y="600" type="line"/>
      <point x="40" y="554" type="line"/>
    </contour>
    <contour>
      <point x="297" y="205" type="curve" smooth="yes"/>
      <point x="227" y="205"/>
      <point x="178" y="257"/>
      <point x="178" y="344" type="curve" smooth="yes"/>
      <point x="178" y="431"/>
      <point x="227" y="483"/>
      <point x="297" y="483" type="curve" smooth="yes"/>
      <point x="366" y="483"/>
      <point x="415" y="431"/>
      <point x="415" y="344" type="curve" smooth="yes"/>
      <point x="415" y="257"/>
      <point x="366" y="205"/>
    </contour>
    <contour>
      <point x="507" y="87" type="line"/>
      <point x="553" y="133" type="line"/>
      <point x="428" y="258" type="line"/>
      <point x="387" y="207" type="line"/>
    </contour>
    <contour>
      <point x="434" y="435" type="line"/>
      <point x="553" y="554" type="line"/>
      <point x="507" y="600" type="line"/>
      <point x="385" y="478" type="line"/>
    </contour>
  </outline>
</glyph>
<glyph name="yen" format="2">
  <advance width="748"/>
  <unicode hex="00A5"/>
  <outline>
    <contour>
      <point x="136" y="322" type="line"/>
      <point x="578" y="322" type="line"/>
      <point x="578" y="358" type="line"/>
      <point x="136" y="358" type="line"/>
    </contour>
    <contour>
      <point x="136" y="190" type="line"/>
      <point x="578" y="190" type="line"/>
      <point x="578" y="226" type="line"/>
      <point x="136" y="226" type="line"/>
    </contour>
    <component base="Y"/>
  </outline>
</glyph>
<glyph name="ordfeminine" format="2">
  <advance width="380"/>
  <unicode hex="00AA"/>
  <outline>
    <contour>
      <point x="127" y="372" type="curve" smooth="yes"/>
      <point x="168" y="372"/>
      <point x="211" y="403"/>
      <point x="246" y="432" type="curve"/>
      <point x="225" y="449" type="line"/>
      <point x="225" y="438" type="line" smooth="yes"/>
      <point x="225" y="389"/>
      <point x="245" y="373"/>
      <point x="275" y="373" type="curve" smooth="yes"/>
      <point x="301" y="373"/>
      <point x="339" y="391"/>
      <point x="360" y="403" type="curve"/>
      <point x="360" y="421" type="line"/>
      <point x="347" y="418"/>
      <point x="335" y="415"/>
      <point x="328" y="415" type="curve" smooth="yes"/>
      <point x="309" y="415"/>
      <point x="307" y="430"/>
      <point x="307" y="450" type="curve" smooth="yes"/>
      <point x="307" y="612" type="line" smooth="yes"/>
      <point x="307" y="684"/>
      <point x="246" y="715"/>
      <point x="177" y="715" type="curve" smooth="yes"/>
      <point x="110" y="715"/>
      <point x="38" y="670"/>
      <point x="38" y="615" type="curve" smooth="yes"/>
      <point x="38" y="588"/>
      <point x="55" y="572"/>
      <point x="83" y="572" type="curve" smooth="yes"/>
      <point x="110" y="572"/>
      <point x="130" y="586"/>
      <point x="130" y="610" type="curve" smooth="yes"/>
      <point x="130" y="622"/>
      <point x="124" y="633"/>
      <point x="116" y="643" type="curve" smooth="yes"/>
      <point x="111" y="649"/>
      <point x="105" y="655"/>
      <point x="105" y="663" type="curve" smooth="yes"/>
      <point x="105" y="676"/>
      <point x="124" y="690"/>
      <point x="154" y="690" type="curve" smooth="yes"/>
      <point x="197" y="690"/>
      <point x="218" y="666"/>
      <point x="218" y="622" type="curve" smooth="yes"/>
      <point x="218" y="595" type="line" smooth="yes"/>
      <point x="218" y="580"/>
      <point x="214" y="573"/>
      <point x="195" y="566" type="curve" smooth="yes"/>
      <point x="36" y="509" type="line" smooth="yes"/>
      <point x="28" y="506"/>
      <point x="25" y="500"/>
      <point x="25" y="482" type="curve" smooth="yes"/>
      <point x="25" y="424"/>
      <point x="67" y="372"/>
    </contour>
    <contour>
      <point x="170" y="417" type="curve" smooth="yes"/>
      <point x="139" y="417"/>
      <point x="113" y="453"/>
      <point x="113" y="489" type="curve" smooth="yes"/>
      <point x="113" y="505"/>
      <point x="115" y="509"/>
      <point x="121" y="512" type="curve" smooth="yes"/>
      <point x="213" y="544" type="line"/>
      <point x="216" y="545"/>
      <point x="218" y="544"/>
      <point x="218" y="541" type="curve" smooth="yes"/>
      <point x="218" y="452" type="line" smooth="yes"/>
      <point x="218" y="442"/>
      <point x="216" y="436"/>
      <point x="209" y="431" type="curve"/>
      <point x="194" y="422"/>
      <point x="185" y="417"/>
    </contour>
  </outline>
</glyph>
<glyph name="guillemetleft" format="2">
  <advance width="381"/>
  <unicode hex="00AB"/>
  <outline>
    <contour>
      <point x="160" y="49" type="line"/>
      <point x="188" y="69" type="line"/>
      <point x="117" y="204" type="line"/>
      <point x="188" y="337" type="line"/>
      <point x="160" y="357" type="line"/>
      <point x="15" y="206" type="line"/>
      <point x="15" y="200" type="line"/>
    </contour>
    <contour>
      <point x="328" y="49" type="line"/>
      <point x="356" y="69" type="line"/>
      <point x="285" y="204" type="line"/>
      <point x="356" y="337" type="line"/>
      <point x="328" y="357" type="line"/>
      <point x="183" y="206" type="line"/>
      <point x="183" y="200" type="line"/>
    </contour>
  </outline>
</glyph>
<glyph name="logicalnot" format="2">
  <advance width="570"/>
  <unicode hex="00AC"/>
  <outline>
    <contour>
      <point x="445" y="208" type="line"/>
      <point x="500" y="209" type="line"/>
      <point x="500" y="437" type="line"/>
      <point x="52" y="437" type="line"/>
      <point x="52" y="380" type="line"/>
      <point x="445" y="380" type="line"/>
    </contour>
  </outline>
</glyph>
<glyph name="onesuperior" format="2">
  <advance width="247"/>
  <unicode hex="00B9"/>
  <outline>
    <contour>
      <point x="25" y="350" type="line"/>
      <point x="227" y="350" type="line"/>
      <point x="227" y="369" type="line"/>
      <point x="197" y="374" type="line" smooth="yes"/>
      <point x="171" y="379"/>
      <point x="166" y="386"/>
      <point x="166" y="407" type="curve" smooth="yes"/>
      <point x="166" y="690" type="line"/>
      <point x="25" y="670" type="line"/>
      <point x="25" y="647" type="line"/>
      <point x="66" y="649" type="line" smooth="yes"/>
      <point x="81" y="649"/>
      <point x="86" y="645"/>
      <point x="86" y="635" type="curve" smooth="yes"/>
      <point x="86" y="407" type="line" smooth="yes"/>
      <point x="86" y="386"/>
      <point x="81" y="379"/>
      <point x="55" y="374" type="curve" smooth="yes"/>
      <point x="25" y="369" type="line"/>
    </contour>
  </outline>
</glyph>
<glyph name="ordmasculine" format="2">
  <advance width="391"/>
  <unicode hex="00BA"/>
  <guideline x="438" y="715" angle="0"/>
  <outline>
    <contour>
      <point x="195" y="371" type="curve" smooth="yes"/>
      <point x="301" y="371"/>
      <point x="376" y="446"/>
      <point x="376" y="546" type="curve" smooth="yes"/>
      <point x="376" y="639"/>
      <point x="301" y="715"/>
      <point x="195" y="715" type="curve" smooth="yes"/>
      <point x="90" y="715"/>
      <point x="15" y="640"/>
      <point x="15" y="540" type="curve" smooth="yes"/>
      <point x="15" y="446"/>
      <point x="90" y="371"/>
    </contour>
    <contour>
      <point x="195" y="405" type="curve" smooth="yes"/>
      <point x="138" y="405"/>
      <point x="108" y="456"/>
      <point x="108" y="540" type="curve" smooth="yes"/>
      <point x="108" y="629"/>
      <point x="138" y="681"/>
      <point x="195" y="681" type="curve" smooth="yes"/>
      <point x="252" y="681"/>
      <point x="283" y="629"/>
      <point x="283" y="545" type="curve" smooth="yes"/>
      <point x="283" y="456"/>
      <point x="252" y="405"/>
    </contour>
  </outline>
</glyph>
<glyph name="guillemetright" format="2">
  <advance width="381"/>
  <unicode hex="00BB"/>
  <outline>
    <contour>
      <point x="53" y="49" type="line"/>
      <point x="198" y="200" type="line"/>
      <point x="198" y="206" type="line"/>
      <point x="53" y="357" type="line"/>
      <point x="25" y="337" type="line"/>
      <point x="96" y="204" type="line"/>
      <point x="25" y="69" type="line"/>
    </contour>
    <contour>
      <point x="221" y="49" type="line"/>
      <point x="366" y="200" type="line"/>
      <point x="366" y="206" type="line"/>
      <point x="221" y="357" type="line"/>
      <point x="193" y="337" type="line"/>
      <point x="264" y="204" type="line"/>
      <point x="193" y="69" type="line"/>
    </contour>
  </outline>
</glyph>
<glyph name="threequarters" format="2">
  <advance width="609"/>
  <unicode hex="00BE"/>
  <outline>
    <contour>
      <point x="430" y="0" type="line"/>
      <point x="505" y="0" type="line"/>
      <point x="505" y="335" type="line"/>
      <point x="482" y="335" type="line"/>
      <point x="286" y="95" type="line"/>
      <point x="286" y="58" type="line"/>
      <point x="546" y="58" type="line"/>
      <point x="566" y="157" type="line"/>
      <point x="555" y="157" type="line"/>
      <point x="546" y="137" type="line" smooth="yes"/>
      <point x="541" y="125"/>
      <point x="534" y="120"/>
      <point x="521" y="120" type="curve" smooth="yes"/>
      <point x="324" y="120" type="line"/>
      <point x="325" y="108" type="line"/>
      <point x="448" y="257" type="line"/>
      <point x="430" y="260" type="line"/>
    </contour>
    <component base="fraction" xOffset="115"/>
    <component base="threesuperior"/>
  </outline>
</glyph>
<glyph name="questiondown" format="2">
  <advance width="383"/>
  <unicode hex="00BF"/>
  <outline>
    <contour>
      <point x="296" y="300" type="curve"/>
      <point x="254" y="300" type="line"/>
      <point x="254" y="259"/>
      <point x="245" y="238"/>
      <point x="165" y="227" type="curve" smooth="yes"/>
      <point x="63" y="213"/>
      <point x="35" y="152"/>
      <point x="35" y="52" type="curve" smooth="yes"/>
      <point x="35" y="-47"/>
      <point x="69" y="-91"/>
      <point x="154" y="-105" type="curve" smooth="yes"/>
      <point x="252" y="-121" type="line" smooth="yes"/>
      <point x="271" y="-124"/>
      <point x="289" y="-132"/>
      <point x="294" y="-150" type="curve" smooth="yes"/>
      <point x="302" y="-180" type="line"/>
      <point x="321" y="-180" type="line"/>
      <point x="321" y="-4" type="line"/>
      <point x="146" y="15" type="line" smooth="yes"/>
      <point x="110" y="19"/>
      <point x="95" y="29"/>
      <point x="95" y="57" type="curve" smooth="yes"/>
      <point x="95" y="86"/>
      <point x="104" y="94"/>
      <point x="167" y="104" type="curve" smooth="yes"/>
      <point x="269" y="120"/>
      <point x="296" y="158"/>
    </contour>
    <contour>
      <point x="272" y="504" type="curve" smooth="yes"/>
      <point x="230" y="504"/>
      <point x="196" y="470"/>
      <point x="196" y="428" type="curve" smooth="yes"/>
      <point x="196" y="385"/>
      <point x="230" y="351"/>
      <point x="272" y="351" type="curve" smooth="yes"/>
      <point x="314" y="351"/>
      <point x="348" y="385"/>
      <point x="348" y="428" type="curve" smooth="yes"/>
      <point x="348" y="470"/>
      <point x="314" y="504"/>
    </contour>
  </outline>
</glyph>
<glyph name="AE" format="2">
  <advance width="990"/>
  <unicode hex="00C6"/>
  <outline>
    <contour>
      <point x="5" y="0" type="line"/>
      <point x="267" y="0" type="line"/>
      <point x="267" y="22" type="line"/>
      <point x="184" y="37" type="line" smooth="yes"/>
      <point x="159" y="42"/>
      <point x="150" y="56"/>
      <point x="164" y="76" type="curve" smooth="yes"/>
      <point x="467" y="507" type="line"/>
      <point x="468" y="563" type="line"/>
      <point x="114" y="67" type="line" smooth="yes"/>
      <point x="101" y="49"/>
      <point x="90" y="42"/>
      <point x="61" y="35" type="curve" smooth="yes"/>
      <point x="5" y="22" type="line"/>
    </contour>
    <contour>
      <point x="263" y="229" type="line"/>
      <point x="494" y="229" type="line"/>
      <point x="494" y="262" type="line"/>
      <point x="285" y="262" type="line"/>
    </contour>
    <component base="E" xOffset="320"/>
  </outline>
</glyph>
<glyph name="multiply" format="2">
  <advance width="570"/>
  <unicode hex="00D7"/>
  <outline>
    <contour>
      <point x="148" y="155" type="line"/>
      <point x="284" y="292" type="line"/>
      <point x="419" y="157" type="line"/>
      <point x="459" y="198" type="line"/>
      <point x="325" y="332" type="line"/>
      <point x="462" y="469" type="line"/>
      <point x="421" y="509" type="line"/>
      <point x="284" y="372" type="line"/>
      <point x="151" y="506" type="line"/>
      <point x="110" y="466" type="line"/>
      <point x="244" y="332" type="line"/>
      <point x="108" y="196" type="line"/>
    </contour>
  </outline>
</glyph>
<glyph name="oslash" format="2">
  <advance width="501"/>
  <unicode hex="00F8"/>
  <guideline x="25" y="218" angle="90"/>
  <guideline x="476" y="281" angle="90"/>
  <outline>
    <contour>
      <point x="58" y="-11" type="line"/>
      <point x="475" y="419" type="line"/>
      <point x="440" y="451" type="line"/>
      <point x="25" y="21" type="line"/>
    </contour>
    <component base="o"/>
  </outline>
</glyph>
<glyph name="Hbar" format="2">
  <advance width="876"/>
  <unicode hex="0126"/>
  <outline>
    <contour>
      <point x="65" y="478" type="line"/>
      <point x="811" y="478" type="line"/>
      <point x="811" y="533" type="line"/>
      <point x="65" y="533" type="line"/>
    </contour>
    <component base="H"/>
  </outline>
</glyph>
<glyph name="hbar" format="2">
  <advance width="570"/>
  <unicode hex="0127"/>
  <outline>
    <contour>
      <point x="30" y="0" type="line"/>
      <point x="265" y="0" type="line"/>
      <point x="265" y="17" type="line"/>
      <point x="233" y="29" type="line" smooth="yes"/>
      <point x="222" y="33"/>
      <point x="206" y="43"/>
      <point x="206" y="62" type="curve" smooth="yes"/>
      <point x="206" y="618" type="line" smooth="yes"/>
      <point x="206" y="654"/>
      <point x="211" y="687"/>
      <point x="220" y="702" type="curve"/>
      <point x="210" y="710" type="line"/>
      <point x="152" y="689"/>
      <point x="106" y="682"/>
      <point x="30" y="672" type="curve"/>
      <point x="30" y="654" type="line"/>
      <point x="62" y="646" type="line" smooth="yes"/>
      <point x="79" y="642"/>
      <point x="89" y="636"/>
      <point x="89" y="608" type="curve" smooth="yes"/>
      <point x="89" y="69" type="line" smooth="yes"/>
      <point x="89" y="50"/>
      <point x="80" y="36"/>
      <point x="62" y="29" type="curve" smooth="yes"/>
      <point x="30" y="17" type="line"/>
    </contour>
    <contour>
      <point x="325" y="0" type="line"/>
      <point x="560" y="0" type="line"/>
      <point x="560" y="17" type="line"/>
      <point x="528" y="29" type="line" smooth="yes"/>
      <point x="517" y="33"/>
      <point x="501" y="43"/>
      <point x="501" y="62" type="curve" smooth="yes"/>
      <point x="501" y="302" type="line" smooth="yes"/>
      <point x="501" y="392"/>
      <point x="446" y="441"/>
      <point x="352" y="441" type="curve" smooth="yes"/>
      <point x="344" y="441"/>
      <point x="333" y="439"/>
      <point x="327" y="435" type="curve" smooth="yes"/>
      <point x="286" y="411"/>
      <point x="245" y="389"/>
      <point x="205" y="370" type="curve"/>
      <point x="191" y="370" type="line"/>
      <point x="206" y="265" type="line"/>
      <point x="206" y="320"/>
      <point x="239" y="359"/>
      <point x="296" y="359" type="curve" smooth="yes"/>
      <point x="353" y="359"/>
      <point x="384" y="327"/>
      <point x="384" y="268" type="curve" smooth="yes"/>
      <point x="384" y="69" type="line" smooth="yes"/>
      <point x="384" y="50"/>
      <point x="375" y="36"/>
      <point x="357" y="29" type="curve" smooth="yes"/>
      <point x="325" y="17" type="line"/>
    </contour>
    <contour>
      <point x="30" y="526" type="line"/>
      <point x="368" y="526" type="line"/>
      <point x="368" y="573" type="line"/>
      <point x="30" y="573" type="line"/>
    </contour>
  </outline>
</glyph>
<glyph name="Lslash" format="2">
  <advance width="701"/>
  <unicode hex="0141"/>
  <guideline x="30" y="91" angle="90"/>
  <outline>
    <contour>
      <point x="30" y="202" type="line"/>
      <point x="563" y="371" type="line"/>
      <point x="563" y="428" type="line"/>
      <point x="30" y="259" type="line"/>
    </contour>
    <component base="L"/>
  </outline>
</glyph>
<glyph name="OE" format="2">
  <advance width="1093"/>
  <unicode hex="0152"/>
  <anchor x="1120" y="690" name="topcase"/>
  <outline>
    <contour>
      <point x="397" y="-11" type="curve" smooth="yes"/>
      <point x="503" y="-11"/>
      <point x="593" y="28"/>
      <point x="657" y="92" type="curve"/>
      <point x="595" y="242" type="line"/>
      <point x="572" y="106"/>
      <point x="499" y="24"/>
      <point x="397" y="24" type="curve" smooth="yes"/>
      <point x="275" y="24"/>
      <point x="193" y="149"/>
      <point x="193" y="329" type="curve" smooth="yes"/>
      <point x="193" y="524"/>
      <point x="275" y="648"/>
      <point x="397" y="648" type="curve" smooth="yes"/>
      <point x="496" y="648"/>
      <point x="567" y="570"/>
      <point x="593" y="448" type="curve"/>
      <point x="663" y="575" type="line"/>
      <point x="599" y="641"/>
      <point x="506" y="683"/>
      <point x="397" y="683" type="curve" smooth="yes"/>
      <point x="190" y="683"/>
      <point x="40" y="532"/>
      <point x="40" y="329" type="curve" smooth="yes"/>
      <point x="40" y="141"/>
      <point x="190" y="-11"/>
    </contour>
    <contour>
      <point x="453" y="0" type="line"/>
      <point x="1038" y="0" type="line"/>
      <point x="1038" y="61"/>
      <point x="1049" y="121"/>
      <point x="1063" y="180" type="curve"/>
      <point x="1041" y="180" type="line"/>
      <point x="998" y="120" type="line" smooth="yes"/>
      <point x="959" y="65"/>
      <point x="913" y="33"/>
      <point x="841" y="33" type="curve" smooth="yes"/>
      <point x="767" y="33" type="line" smooth="yes"/>
      <point x="698" y="33"/>
      <point x="698" y="60"/>
      <point x="698" y="119" type="curve" smooth="yes"/>
      <point x="698" y="339" type="line"/>
      <point x="828" y="339" type="line" smooth="yes"/>
      <point x="892" y="339"/>
      <point x="916" y="312"/>
      <point x="924" y="265" type="curve" smooth="yes"/>
      <point x="933" y="217" type="line"/>
      <point x="955" y="217" type="line"/>
      <point x="955" y="494" type="line"/>
      <point x="933" y="494" type="line"/>
      <point x="925" y="448" type="line" smooth="yes"/>
      <point x="917" y="400"/>
      <point x="893" y="372"/>
      <point x="826" y="372" type="curve" smooth="yes"/>
      <point x="698" y="372" type="line"/>
      <point x="698" y="640" type="line"/>
      <point x="831" y="640" type="line" smooth="yes"/>
      <point x="920" y="640"/>
      <point x="981" y="575"/>
      <point x="1014" y="496" type="curve"/>
      <point x="1036" y="496" type="line"/>
      <point x="1029" y="539"/>
      <point x="1021" y="577"/>
      <point x="1021" y="618" type="curve" smooth="yes"/>
      <point x="1021" y="636"/>
      <point x="1022" y="654"/>
      <point x="1026" y="673" type="curve"/>
      <point x="453" y="673" type="line"/>
      <point x="558" y="623" type="line"/>
      <point x="558" y="50" type="line"/>
    </contour>
  </outline>
</glyph>
<glyph name="oe" format="2">
  <advance width="771"/>
  <unicode hex="0153"/>
  <outline>
    <contour>
      <point x="250" y="-8" type="curve" smooth="yes"/>
      <point x="386" y="-8"/>
      <point x="466" y="89"/>
      <point x="466" y="226" type="curve" smooth="yes"/>
      <point x="466" y="354"/>
      <point x="386" y="451"/>
      <point x="250" y="451" type="curve" smooth="yes"/>
      <point x="115" y="451"/>
      <point x="25" y="355"/>
      <point x="25" y="218" type="curve" smooth="yes"/>
      <point x="25" y="90"/>
      <point x="115" y="-8"/>
    </contour>
    <contour>
      <point x="251" y="24" type="curve" smooth="yes"/>
      <point x="186" y="24"/>
      <point x="153" y="94"/>
      <point x="153" y="229" type="curve" smooth="yes"/>
      <point x="153" y="360"/>
      <point x="186" y="419"/>
      <point x="249" y="419" type="curve" smooth="yes"/>
      <point x="315" y="419"/>
      <point x="348" y="350"/>
      <point x="348" y="215" type="curve" smooth="yes"/>
      <point x="348" y="84"/>
      <point x="315" y="24"/>
    </contour>
    <contour>
      <point x="558" y="-9" type="curve" smooth="yes"/>
      <point x="630" y="-9"/>
      <point x="692" y="24"/>
      <point x="746" y="98" type="curve"/>
      <point x="729" y="114" type="line"/>
      <point x="689" y="80"/>
      <point x="652" y="64"/>
      <point x="611" y="64" type="curve" smooth="yes"/>
      <point x="532" y="64"/>
      <point x="466" y="125"/>
      <point x="466" y="238" type="curve" smooth="yes"/>
      <point x="466" y="346"/>
      <point x="503" y="419"/>
      <point x="564" y="419" type="curve" smooth="yes"/>
      <point x="604" y="419"/>
      <point x="630" y="375"/>
      <point x="630" y="305" type="curve" smooth="yes"/>
      <point x="630" y="292"/>
      <point x="627" y="284"/>
      <point x="616" y="284" type="curve"/>
      <point x="399" y="275" type="line"/>
      <point x="399" y="239" type="line"/>
      <point x="723" y="239" type="line" smooth="yes"/>
      <point x="739" y="239"/>
      <point x="746" y="250"/>
      <point x="746" y="264" type="curve" smooth="yes"/>
      <point x="746" y="370"/>
      <point x="675" y="451"/>
      <point x="570" y="451" type="curve" smooth="yes"/>
      <point x="437" y="451"/>
      <point x="348" y="354"/>
      <point x="348" y="215" type="curve" smooth="yes"/>
      <point x="348" y="90"/>
      <point x="430" y="-9"/>
    </contour>
  </outline>
</glyph>
<glyph name="Tbar" format="2">
  <advance width="704"/>
  <unicode hex="0166"/>
  <outline>
    <contour>
      <point x="157" y="312" type="line"/>
      <point x="547" y="312" type="line"/>
      <point x="547" y="367" type="line"/>
      <point x="157" y="367" type="line"/>
    </contour>
    <component base="T"/>
  </outline>
</glyph>
<glyph name="tbar" format="2">
  <advance width="372"/>
  <unicode hex="0167"/>
  <guideline x="27" y="354" angle="90"/>
  <guideline x="322" y="373" angle="90"/>
  <outline>
    <contour>
      <point x="27" y="214" type="line"/>
      <point x="322" y="214" type="line"/>
      <point x="322" y="269" type="line"/>
      <point x="27" y="269" type="line"/>
    </contour>
    <component base="t" xOffset="7"/>
  </outline>
</glyph>
<glyph name="florin" format="2">
  <advance width="510"/>
  <unicode hex="0192"/>
  <outline>
    <contour>
      <point x="-30" y="-247" type="curve" smooth="yes"/>
      <point x="39" y="-247"/>
      <point x="82" y="-206"/>
      <point x="114" y="-171" type="curve" smooth="yes"/>
      <point x="138" y="-144"/>
      <point x="155" y="-120"/>
      <point x="173" y="-120" type="curve"/>
      <point x="340" y="532" type="line" smooth="yes"/>
      <point x="370" y="649"/>
      <point x="388" y="684"/>
      <point x="426" y="684" type="curve" smooth="yes"/>
      <point x="450" y="684"/>
      <point x="463" y="656"/>
      <point x="474" y="626" type="curve" smooth="yes"/>
      <point x="483" y="598"/>
      <point x="497" y="569"/>
      <point x="522" y="569" type="curve" smooth="yes"/>
      <point x="550" y="569"/>
      <point x="570" y="586"/>
      <point x="570" y="620" type="curve" smooth="yes"/>
      <point x="570" y="675"/>
      <point x="512" y="711"/>
      <point x="437" y="711" type="curve" smooth="yes"/>
      <point x="303" y="711"/>
      <point x="249" y="652"/>
      <point x="208" y="489" type="curve" smooth="yes"/>
      <point x="60" y="-100" type="line" smooth="yes"/>
      <point x="38" y="-188"/>
      <point x="3" y="-220"/>
      <point x="-22" y="-220" type="curve" smooth="yes"/>
      <point x="-35" y="-220"/>
      <point x="-49" y="-204"/>
      <point x="-49" y="-170" type="curve" smooth="yes"/>
      <point x="-49" y="-117"/>
      <point x="-80" y="-106"/>
      <point x="-107" y="-106" type="curve" smooth="yes"/>
      <point x="-137" y="-106"/>
      <point x="-160" y="-124"/>
      <point x="-160" y="-163" type="curve" smooth="yes"/>
      <point x="-160" y="-215"/>
      <point x="-105" y="-247"/>
    </contour>
    <contour>
      <point x="101" y="373" type="line"/>
      <point x="435" y="373" type="line"/>
      <point x="435" y="413" type="line"/>
      <point x="435" y="413"/>
      <point x="226" y="413"/>
      <point x="226" y="413" type="curve" smooth="yes"/>
      <point x="226" y="413"/>
      <point x="208" y="489"/>
      <point x="208" y="489" type="curve"/>
      <point x="192" y="430"/>
      <point x="163" y="413"/>
      <point x="128" y="413" type="curve" smooth="yes"/>
      <point x="101" y="413" type="line"/>
    </contour>
  </outline>
</glyph>
<glyph name="uni02C9" format="2">
  <advance width="570"/>
  <unicode hex="02C9"/>
  <outline>
    <contour>
      <point x="117" y="590" type="line"/>
      <point x="453" y="590" type="line"/>
      <point x="453" y="645" type="line"/>
      <point x="117" y="645" type="line"/>
    </contour>
  </outline>
</glyph>
<glyph name="gravecomb" format="2">
  <unicode hex="0300"/>
  <anchor x="294" y="470" name="_top"/>
  <outline>
    <contour>
      <point x="361" y="535" type="line"/>
      <point x="380" y="550" type="line"/>
      <point x="279" y="710" type="line" smooth="yes"/>
      <point x="268" y="728"/>
      <point x="255" y="738"/>
      <point x="236" y="739" type="curve" smooth="yes"/>
      <point x="209" y="740"/>
      <point x="191" y="721"/>
      <point x="190" y="699" type="curve" smooth="yes"/>
      <point x="189" y="684"/>
      <point x="196" y="668"/>
      <point x="212" y="655" type="curve" smooth="yes"/>
    </contour>
  </outline>
</glyph>
<glyph name="dotaccentcomb" format="2">
  <unicode hex="0307"/>
  <anchor x="285" y="470" name="_top"/>
  <outline>
    <contour>
      <point x="285" y="545" type="curve" smooth="yes"/>
      <point x="326" y="545"/>
      <point x="359" y="578"/>
      <point x="359" y="619" type="curve" smooth="yes"/>
      <point x="359" y="660"/>
      <point x="326" y="693"/>
      <point x="285" y="693" type="curve" smooth="yes"/>
      <point x="244" y="693"/>
      <point x="211" y="660"/>
      <point x="211" y="619" type="curve" smooth="yes"/>
      <point x="211" y="578"/>
      <point x="244" y="545"/>
    </contour>
  </outline>
</glyph>
<glyph name="dieresiscomb" format="2">
  <unicode hex="0308"/>
  <anchor x="285" y="470" name="_top"/>
  <outline>
    <contour>
      <point x="174" y="554" type="curve" smooth="yes"/>
      <point x="211" y="554"/>
      <point x="242" y="585"/>
      <point x="242" y="622" type="curve" smooth="yes"/>
      <point x="242" y="659"/>
      <point x="211" y="690"/>
      <point x="174" y="690" type="curve" smooth="yes"/>
      <point x="137" y="690"/>
      <point x="106" y="659"/>
      <point x="106" y="622" type="curve" smooth="yes"/>
      <point x="106" y="585"/>
      <point x="137" y="554"/>
    </contour>
    <contour>
      <point x="396" y="554" type="curve" smooth="yes"/>
      <point x="433" y="554"/>
      <point x="464" y="585"/>
      <point x="464" y="622" type="curve" smooth="yes"/>
      <point x="464" y="659"/>
      <point x="433" y="690"/>
      <point x="396" y="690" type="curve" smooth="yes"/>
      <point x="359" y="690"/>
      <point x="328" y="659"/>
      <point x="328" y="622" type="curve" smooth="yes"/>
      <point x="328" y="585"/>
      <point x="359" y="554"/>
    </contour>
  </outline>
</glyph>
<glyph name="ringcomb" format="2">
  <unicode hex="030A"/>
  <anchor x="285" y="470" name="_top"/>
  <outline>
    <contour>
      <point x="285" y="505" type="curve" smooth="yes"/>
      <point x="354" y="505"/>
      <point x="410" y="561"/>
      <point x="410" y="630" type="curve" smooth="yes"/>
      <point x="410" y="699"/>
      <point x="354" y="755"/>
      <point x="285" y="755" type="curve" smooth="yes"/>
      <point x="216" y="755"/>
      <point x="160" y="699"/>
      <point x="160" y="630" type="curve" smooth="yes"/>
      <point x="160" y="561"/>
      <point x="216" y="505"/>
    </contour>
    <contour>
      <point x="286" y="557" type="curve" smooth="yes"/>
      <point x="246" y="557"/>
      <point x="212" y="590"/>
      <point x="212" y="630" type="curve" smooth="yes"/>
      <point x="212" y="670"/>
      <point x="246" y="703"/>
      <point x="286" y="703" type="curve" smooth="yes"/>
      <point x="326" y="703"/>
      <point x="358" y="670"/>
      <point x="358" y="630" type="curve" smooth="yes"/>
      <point x="358" y="590"/>
      <point x="326" y="557"/>
    </contour>
  </outline>
</glyph>
<glyph name="hungarumlautcomb" format="2">
  <unicode hex="030B"/>
  <anchor x="242" y="470" name="_top"/>
  <outline>
    <contour>
      <point x="119" y="536" type="line"/>
      <point x="265" y="658" type="line" smooth="yes"/>
      <point x="281" y="670"/>
      <point x="286" y="685"/>
      <point x="286" y="699" type="curve" smooth="yes"/>
      <point x="286" y="722"/>
      <point x="269" y="742"/>
      <point x="242" y="742" type="curve" smooth="yes"/>
      <point x="222" y="742"/>
      <point x="208" y="731"/>
      <point x="197" y="713" type="curve" smooth="yes"/>
      <point x="100" y="550" type="line"/>
    </contour>
    <contour>
      <point x="291" y="541" type="line"/>
      <point x="446" y="653" type="line" smooth="yes"/>
      <point x="463" y="665"/>
      <point x="470" y="681"/>
      <point x="470" y="696" type="curve" smooth="yes"/>
      <point x="470" y="718"/>
      <point x="453" y="738"/>
      <point x="426" y="738" type="curve" smooth="yes"/>
      <point x="407" y="738"/>
      <point x="394" y="729"/>
      <point x="382" y="712" type="curve" smooth="yes"/>
      <point x="273" y="557" type="line"/>
    </contour>
  </outline>
</glyph>
<glyph name="caroncomb" format="2">
  <unicode hex="030C"/>
  <anchor x="285" y="470" name="_top"/>
  <outline>
    <contour>
      <point x="264" y="527" type="line"/>
      <point x="306" y="527" type="line"/>
      <point x="444" y="708" type="line"/>
      <point x="426" y="724" type="line"/>
      <point x="285" y="627" type="line"/>
      <point x="144" y="724" type="line"/>
      <point x="126" y="708" type="line"/>
    </contour>
  </outline>
</glyph>
<glyph name="commaaccentcomb" format="2">
  <unicode hex="0326"/>
  <outline>
    <contour>
      <point x="200" y="-249" type="line"/>
      <point x="312" y="-243"/>
      <point x="378" y="-190"/>
      <point x="378" y="-118" type="curve" smooth="yes"/>
      <point x="378" y="-71"/>
      <point x="331" y="-35"/>
      <point x="269" y="-22" type="curve"/>
      <point x="248" y="-50"/>
      <point x="229" y="-64"/>
      <point x="192" y="-81" type="curve"/>
      <point x="192" y="-108" type="line"/>
      <point x="195" y="-108"/>
      <point x="199" y="-108"/>
      <point x="202" y="-108" type="curve" smooth="yes"/>
      <point x="247" y="-109"/>
      <point x="272" y="-134"/>
      <point x="272" y="-154" type="curve" smooth="yes"/>
      <point x="272" y="-185"/>
      <point x="243" y="-210"/>
      <point x="200" y="-214" type="curve"/>
    </contour>
  </outline>
</glyph>
<glyph name="cedillacomb" format="2">
  <unicode hex="0327"/>
  <anchor x="283" y="-53" name="_bottom"/>
  <outline>
    <contour>
      <point x="170" y="-247" type="line"/>
      <point x="272" y="-241"/>
      <point x="400" y="-208"/>
      <point x="400" y="-120" type="curve" smooth="yes"/>
      <point x="400" y="-70"/>
      <point x="347" y="-36"/>
      <point x="253" y="-36" type="curve"/>
      <point x="263" y="0" type="line"/>
      <point x="223" y="0" type="line"/>
      <point x="196" y="-104" type="line"/>
      <point x="256" y="-106"/>
      <point x="290" y="-119"/>
      <point x="290" y="-147" type="curve" smooth="yes"/>
      <point x="290" y="-183"/>
      <point x="238" y="-211"/>
      <point x="170" y="-214" type="curve"/>
    </contour>
  </outline>
</glyph>
<glyph name="Delta" format="2">
  <advance width="684"/>
  <unicode hex="0394"/>
  <outline>
    <contour>
      <point x="5" y="0" type="line"/>
      <point x="679" y="0" type="line"/>
      <point x="396" y="673" type="line"/>
      <point x="320" y="673" type="line"/>
      <point x="276" y="631" type="line"/>
      <point x="486" y="85" type="line"/>
      <point x="98" y="85" type="line"/>
      <point x="334" y="673" type="line"/>
      <point x="282" y="673" type="line"/>
    </contour>
  </outline>
</glyph>
<glyph name="endash" format="2">
  <advance width="570"/>
  <unicode hex="2013"/>
  <outline>
    <contour>
      <point x="0" y="223" type="line"/>
      <point x="570" y="223" type="line"/>
      <point x="570" y="278" type="line"/>
      <point x="0" y="278" type="line"/>
    </contour>
  </outline>
</glyph>
<glyph name="quoteleft" format="2">
  <advance width="285"/>
  <unicode hex="2018"/>
  <outline>
    <contour>
      <point x="241" y="694" type="line"/>
      <point x="121" y="686"/>
      <point x="45" y="600"/>
      <point x="45" y="506" type="curve" smooth="yes"/>
      <point x="45" y="440"/>
      <point x="88" y="393"/>
      <point x="153" y="372" type="curve"/>
      <point x="174" y="411"/>
      <point x="191" y="433"/>
      <point x="227" y="451" type="curve"/>
      <point x="227" y="482" type="line"/>
      <point x="175" y="490"/>
      <point x="146" y="520"/>
      <point x="146" y="558" type="curve" smooth="yes"/>
      <point x="146" y="611"/>
      <point x="184" y="652"/>
      <point x="241" y="661" type="curve"/>
    </contour>
  </outline>
</glyph>
<glyph name="dagger" format="2">
  <advance width="542"/>
  <unicode hex="2020"/>
  <outline>
    <contour>
      <point x="249" y="-170" type="curve"/>
      <point x="293" y="-170" type="line"/>
      <point x="294" y="-38"/>
      <point x="302" y="213"/>
      <point x="356" y="253" type="curve"/>
      <point x="339" y="267"/>
      <point x="283" y="323"/>
      <point x="283" y="420" type="curve" smooth="yes"/>
      <point x="283" y="425" type="line"/>
      <point x="259" y="425" type="line"/>
      <point x="259" y="420" type="line" smooth="yes"/>
      <point x="259" y="323"/>
      <point x="203" y="267"/>
      <point x="186" y="253" type="curve"/>
      <point x="240" y="213"/>
      <point x="248" y="-38"/>
    </contour>
    <contour>
      <point x="69" y="372" type="curve" smooth="yes"/>
      <point x="94" y="372"/>
      <point x="122" y="384"/>
      <point x="149" y="394" type="curve" smooth="yes"/>
      <point x="183" y="406"/>
      <point x="218" y="417"/>
      <point x="261" y="417" type="curve" smooth="yes"/>
      <point x="279" y="417" type="line" smooth="yes"/>
      <point x="325" y="417"/>
      <point x="359" y="406"/>
      <point x="393" y="394" type="curve" smooth="yes"/>
      <point x="421" y="384"/>
      <point x="446" y="372"/>
      <point x="472" y="372" type="curve" smooth="yes"/>
      <point x="505" y="372"/>
      <point x="517" y="411"/>
      <point x="517" y="428" type="curve" smooth="yes"/>
      <point x="517" y="445"/>
      <point x="505" y="483"/>
      <point x="472" y="483" type="curve" smooth="yes"/>
      <point x="446" y="483"/>
      <point x="421" y="472"/>
      <point x="393" y="462" type="curve" smooth="yes"/>
      <point x="359" y="451"/>
      <point x="325" y="439"/>
      <point x="279" y="439" type="curve" smooth="yes"/>
      <point x="261" y="439" type="line" smooth="yes"/>
      <point x="218" y="439"/>
      <point x="182" y="450"/>
      <point x="149" y="462" type="curve" smooth="yes"/>
      <point x="121" y="472"/>
      <point x="94" y="483"/>
      <point x="69" y="483" type="curve" smooth="yes"/>
      <point x="37" y="483"/>
      <point x="25" y="445"/>
      <point x="25" y="427" type="curve" smooth="yes"/>
      <point x="25" y="411"/>
      <point x="37" y="372"/>
    </contour>
    <contour>
      <point x="259" y="425" type="line"/>
      <point x="283" y="425" type="line"/>
      <point x="283" y="439" type="line" smooth="yes"/>
      <point x="283" y="490"/>
      <point x="297" y="531"/>
      <point x="307" y="572" type="curve"/>
      <point x="319" y="604"/>
      <point x="329" y="637"/>
      <point x="329" y="667" type="curve" smooth="yes"/>
      <point x="329" y="705"/>
      <point x="299" y="719"/>
      <point x="271" y="719" type="curve" smooth="yes"/>
      <point x="245" y="719"/>
      <point x="214" y="705"/>
      <point x="214" y="667" type="curve" smooth="yes"/>
      <point x="214" y="637"/>
      <point x="225" y="604"/>
      <point x="237" y="572" type="curve"/>
      <point x="248" y="531"/>
      <point x="259" y="490"/>
      <point x="259" y="439" type="curve" smooth="yes"/>
    </contour>
  </outline>
</glyph>
<glyph name="bullet" format="2">
  <advance width="361"/>
  <unicode hex="2022"/>
  <outline>
    <contour>
      <point x="180" y="241" type="curve" smooth="yes"/>
      <point x="246" y="241"/>
      <point x="299" y="293"/>
      <point x="299" y="359" type="curve" smooth="yes"/>
      <point x="299" y="425"/>
      <point x="246" y="478"/>
      <point x="180" y="478" type="curve" smooth="yes"/>
      <point x="114" y="478"/>
      <point x="62" y="425"/>
      <point x="62" y="359" type="curve" smooth="yes"/>
      <point x="62" y="293"/>
      <point x="114" y="241"/>
    </contour>
  </outline>
</glyph>
<glyph name="guilsinglright" format="2">
  <advance width="213"/>
  <unicode hex="203A"/>
  <outline>
    <contour>
      <point x="53" y="49" type="line"/>
      <point x="198" y="200" type="line"/>
      <point x="198" y="206" type="line"/>
      <point x="53" y="357" type="line"/>
      <point x="25" y="337" type="line"/>
      <point x="96" y="204" type="line"/>
      <point x="25" y="69" type="line"/>
    </contour>
  </outline>
</glyph>
<glyph name="trademark" format="2">
  <advance width="816"/>
  <unicode hex="2122"/>
  <outline>
    <contour>
      <point x="548" y="397" type="line"/>
      <point x="552" y="397" type="line"/>
      <point x="688" y="696" type="line"/>
      <point x="659" y="673" type="line"/>
      <point x="670" y="440" type="line" smooth="yes"/>
      <point x="670" y="431"/>
      <point x="668" y="429"/>
      <point x="656" y="426" type="curve" smooth="yes"/>
      <point x="623" y="417" type="line"/>
      <point x="623" y="400" type="line"/>
      <point x="806" y="400" type="line"/>
      <point x="806" y="416" type="line"/>
      <point x="784" y="422" type="line" smooth="yes"/>
      <point x="763" y="428"/>
      <point x="758" y="434"/>
      <point x="757" y="449" type="curve" smooth="yes"/>
      <point x="744" y="664" type="line" smooth="yes"/>
      <point x="743" y="685"/>
      <point x="750" y="690"/>
      <point x="761" y="693" type="curve" smooth="yes"/>
      <point x="777" y="697" type="line"/>
      <point x="777" y="710" type="line"/>
      <point x="667" y="710" type="line"/>
      <point x="549" y="454" type="line"/>
      <point x="587" y="492" type="line"/>
      <point x="494" y="710" type="line"/>
      <point x="367" y="710" type="line"/>
      <point x="367" y="697" type="line"/>
      <point x="383" y="693" type="line" smooth="yes"/>
      <point x="409" y="687"/>
      <point x="414" y="683"/>
      <point x="413" y="662" type="curve" smooth="yes"/>
      <point x="404" y="450" type="line" smooth="yes"/>
      <point x="403" y="431"/>
      <point x="399" y="430"/>
      <point x="374" y="424" type="curve" smooth="yes"/>
      <point x="347" y="417" type="line"/>
      <point x="347" y="400" type="line"/>
      <point x="486" y="400" type="line"/>
      <point x="486" y="417" type="line"/>
      <point x="458" y="424" type="line" smooth="yes"/>
      <point x="432" y="429"/>
      <point x="428" y="431"/>
      <point x="429" y="450" type="curve" smooth="yes"/>
      <point x="442" y="697" type="line"/>
      <point x="417" y="694" type="line"/>
    </contour>
    <contour>
      <point x="82" y="400" type="line"/>
      <point x="257" y="400" type="line"/>
      <point x="257" y="416" type="line"/>
      <point x="236" y="422" type="line" smooth="yes"/>
      <point x="212" y="429"/>
      <point x="210" y="428"/>
      <point x="210" y="449" type="curve" smooth="yes"/>
      <point x="210" y="686" type="line"/>
      <point x="228" y="686" type="line"/>
      <point x="271" y="686"/>
      <point x="295" y="655"/>
      <point x="306" y="616" type="curve"/>
      <point x="325" y="616" type="line"/>
      <point x="318" y="652"/>
      <point x="316" y="680"/>
      <point x="319" y="710" type="curve"/>
      <point x="19" y="710" type="line"/>
      <point x="24" y="680"/>
      <point x="22" y="652"/>
      <point x="15" y="616" type="curve"/>
      <point x="34" y="616" type="line"/>
      <point x="44" y="655"/>
      <point x="68" y="686"/>
      <point x="112" y="686" type="curve" smooth="yes"/>
      <point x="130" y="686" type="line"/>
      <point x="130" y="449" type="line" smooth="yes"/>
      <point x="130" y="428"/>
      <point x="130" y="430"/>
      <point x="103" y="422" type="curve" smooth="yes"/>
      <point x="82" y="416" type="line"/>
    </contour>
  </outline>
</glyph>
<glyph name="partialdiff" format="2">
  <advance width="547"/>
  <unicode hex="2202"/>
  <outline>
    <contour>
      <point x="208" y="-11" type="curve" smooth="yes"/>
      <point x="399" y="-11"/>
      <point x="502" y="166"/>
      <point x="502" y="413" type="curve" smooth="yes"/>
      <point x="502" y="582"/>
      <point x="447" y="682"/>
      <point x="310" y="682" type="curve" smooth="yes"/>
      <point x="214" y="682"/>
      <point x="152" y="639"/>
      <point x="152" y="586" type="curve" smooth="yes"/>
      <point x="152" y="555"/>
      <point x="174" y="539"/>
      <point x="204" y="539" type="curve" smooth="yes"/>
      <point x="230" y="539"/>
      <point x="244" y="566"/>
      <point x="254" y="592" type="curve" smooth="yes"/>
      <point x="265" y="620"/>
      <point x="276" y="647"/>
      <point x="300" y="647" type="curve" smooth="yes"/>
      <point x="361" y="647"/>
      <point x="385" y="557"/>
      <point x="385" y="402" type="curve" smooth="yes"/>
      <point x="385" y="360"/>
      <point x="381" y="308"/>
      <point x="375" y="270" type="curve"/>
      <point x="382" y="270" type="line"/>
      <point x="382" y="355"/>
      <point x="324" y="414"/>
      <point x="237" y="414" type="curve" smooth="yes"/>
      <point x="102" y="414"/>
      <point x="25" y="315"/>
      <point x="25" y="166" type="curve" smooth="yes"/>
      <point x="25" y="46"/>
      <point x="115" y="-11"/>
    </contour>
    <contour>
      <point x="230" y="17" type="curve" smooth="yes"/>
      <point x="181" y="17"/>
      <point x="144" y="53"/>
      <point x="144" y="158" type="curve" smooth="yes"/>
      <point x="144" y="301"/>
      <point x="185" y="373"/>
      <point x="256" y="373" type="curve" smooth="yes"/>
      <point x="329" y="373"/>
      <point x="352" y="294"/>
      <point x="352" y="231" type="curve" smooth="yes"/>
      <point x="352" y="155"/>
      <point x="317" y="17"/>
    </contour>
  </outline>
</glyph>
<glyph name="product" format="2">
  <advance width="849"/>
  <unicode hex="220F"/>
  <outline>
    <contour>
      <point x="469" y="-107" type="line"/>
      <point x="819" y="-107" type="line"/>
      <point x="819" y="-85" type="line"/>
      <point x="768" y="-74" type="line" smooth="yes"/>
      <point x="722" y="-64"/>
      <point x="714" y="-57"/>
      <point x="714" y="-15" type="curve" smooth="yes"/>
      <point x="714" y="618" type="line" smooth="yes"/>
      <point x="714" y="660"/>
      <point x="722" y="667"/>
      <point x="768" y="677" type="curve" smooth="yes"/>
      <point x="819" y="688" type="line"/>
      <point x="819" y="710" type="line"/>
      <point x="469" y="710" type="line"/>
      <point x="469" y="688" type="line"/>
      <point x="574" y="688" type="line"/>
      <point x="574" y="-15" type="line" smooth="yes"/>
      <point x="574" y="-57"/>
      <point x="566" y="-64"/>
      <point x="520" y="-74" type="curve" smooth="yes"/>
      <point x="469" y="-85" type="line"/>
    </contour>
    <contour>
      <point x="30" y="-107" type="line"/>
      <point x="380" y="-107" type="line"/>
      <point x="380" y="-85" type="line"/>
      <point x="329" y="-74" type="line" smooth="yes"/>
      <point x="283" y="-64"/>
      <point x="275" y="-57"/>
      <point x="275" y="-15" type="curve" smooth="yes"/>
      <point x="275" y="688" type="line"/>
      <point x="380" y="688" type="line"/>
      <point x="380" y="710" type="line"/>
      <point x="30" y="710" type="line"/>
      <point x="30" y="688" type="line"/>
      <point x="81" y="677" type="line" smooth="yes"/>
      <point x="127" y="667"/>
      <point x="135" y="660"/>
      <point x="135" y="618" type="curve" smooth="yes"/>
      <point x="135" y="-15" type="line" smooth="yes"/>
      <point x="135" y="-57"/>
      <point x="127" y="-64"/>
      <point x="81" y="-74" type="curve" smooth="yes"/>
      <point x="30" y="-85" type="line"/>
    </contour>
    <contour>
      <point x="237" y="675" type="line"/>
      <point x="600" y="675" type="line"/>
      <point x="600" y="711" type="line"/>
      <point x="237" y="711" type="line"/>
    </contour>
  </outline>
</glyph>
<glyph name="radical" format="2">
  <advance width="490"/>
  <unicode hex="221A"/>
  <outline>
    <contour>
      <point x="249" y="0" type="line"/>
      <point x="293" y="0" type="line"/>
      <point x="485" y="711" type="line"/>
      <point x="441" y="711" type="line"/>
    </contour>
    <contour>
      <point x="179" y="0" type="line"/>
      <point x="293" y="0" type="line"/>
      <point x="175" y="410" type="line"/>
      <point x="58" y="410" type="line"/>
    </contour>
    <contour>
      <point x="5" y="310" type="line"/>
      <point x="175" y="310" type="line"/>
      <point x="175" y="410" type="line"/>
      <point x="5" y="410" type="line"/>
    </contour>
  </outline>
</glyph>
<glyph name="infinity" format="2">
  <advance width="782"/>
  <unicode hex="221E"/>
  <outline>
    <contour>
      <point x="223" y="142" type="curve" smooth="yes"/>
      <point x="328" y="142"/>
      <point x="378" y="225"/>
      <point x="428" y="298" type="curve" smooth="yes"/>
      <point x="472" y="362"/>
      <point x="525" y="437"/>
      <point x="603" y="437" type="curve" smooth="yes"/>
      <point x="666" y="437"/>
      <point x="719" y="402"/>
      <point x="719" y="338" type="curve" smooth="yes"/>
      <point x="719" y="271"/>
      <point x="674" y="225"/>
      <point x="578" y="225" type="curve" smooth="yes"/>
      <point x="517" y="225"/>
      <point x="456" y="255"/>
      <point x="422" y="316" type="curve"/>
      <point x="382" y="290" type="line"/>
      <point x="410" y="215"/>
      <point x="486" y="142"/>
      <point x="582" y="142" type="curve" smooth="yes"/>
      <point x="687" y="142"/>
      <point x="752" y="226"/>
      <point x="752" y="328" type="curve" smooth="yes"/>
      <point x="752" y="437"/>
      <point x="673" y="521"/>
      <point x="559" y="521" type="curve" smooth="yes"/>
      <point x="453" y="521"/>
      <point x="404" y="440"/>
      <point x="354" y="366" type="curve" smooth="yes"/>
      <point x="310" y="302"/>
      <point x="258" y="226"/>
      <point x="179" y="226" type="curve" smooth="yes"/>
      <point x="116" y="226"/>
      <point x="63" y="261"/>
      <point x="63" y="325" type="curve" smooth="yes"/>
      <point x="63" y="392"/>
      <point x="108" y="438"/>
      <point x="204" y="438" type="curve" smooth="yes"/>
      <point x="265" y="438"/>
      <point x="326" y="408"/>
      <point x="360" y="347" type="curve"/>
      <point x="400" y="373" type="line"/>
      <point x="372" y="448"/>
      <point x="296" y="521"/>
      <point x="200" y="521" type="curve" smooth="yes"/>
      <point x="95" y="521"/>
      <point x="30" y="437"/>
      <point x="30" y="335" type="curve" smooth="yes"/>
      <point x="30" y="226"/>
      <point x="109" y="142"/>
    </contour>
  </outline>
</glyph>
<glyph name="notequal" format="2">
  <advance width="600"/>
  <unicode hex="2260"/>
  <guideline x="495" y="305" angle="90"/>
  <guideline x="76" y="336" angle="90"/>
  <outline>
    <contour>
      <point x="76" y="64" type="line"/>
      <point x="137" y="64" type="line"/>
      <point x="495" y="597" type="line"/>
      <point x="434" y="597" type="line"/>
    </contour>
    <component base="equal"/>
  </outline>
</glyph>
<glyph name="lessequal" format="2">
  <advance width="600"/>
  <unicode hex="2264"/>
  <outline>
    <contour>
      <point x="532" y="177" type="line"/>
      <point x="532" y="239" type="line"/>
      <point x="172" y="369" type="line"/>
      <point x="172" y="349" type="line"/>
      <point x="528" y="479" type="line"/>
      <point x="528" y="540" type="line"/>
      <point x="108" y="375" type="line"/>
      <point x="107" y="343" type="line"/>
    </contour>
    <contour>
      <point x="532" y="100" type="line"/>
      <point x="532" y="157" type="line"/>
      <point x="114" y="157" type="line"/>
      <point x="114" y="100" type="line"/>
    </contour>
  </outline>
</glyph>
<glyph name="fi" format="2">
  <advance width="576"/>
  <unicode hex="FB01"/>
  <anchor x="305" y="0" name="caret_1"/>
  <outline>
    <contour>
      <point x="30" y="0" type="line"/>
      <point x="282" y="0" type="line"/>
      <point x="282" y="17" type="line"/>
      <point x="239" y="29" type="line" smooth="yes"/>
      <point x="216" y="35"/>
      <point x="207" y="47"/>
      <point x="207" y="62" type="curve" smooth="yes"/>
      <point x="207" y="409" type="line"/>
      <point x="326" y="409" type="line"/>
      <point x="358" y="401" type="line" smooth="yes"/>
      <point x="380" y="396"/>
      <point x="385" y="387"/>
      <point x="385" y="363" type="curve" smooth="yes"/>
      <point x="385" y="69" type="line" smooth="yes"/>
      <point x="385" y="50"/>
      <point x="376" y="36"/>
      <point x="358" y="29" type="curve" smooth="yes"/>
      <point x="326" y="17" type="line"/>
      <point x="326" y="0" type="line"/>
      <point x="561" y="0" type="line"/>
      <point x="561" y="17" type="line"/>
      <point x="529" y="29" type="line" smooth="yes"/>
      <point x="518" y="33"/>
      <point x="502" y="43"/>
      <point x="502" y="62" type="curve" smooth="yes"/>
      <point x="502" y="365" type="line" smooth="yes"/>
      <point x="502" y="401"/>
      <point x="507" y="434"/>
      <point x="516" y="449" type="curve"/>
      <point x="506" y="457" type="line"/>
      <point x="458" y="442" type="line"/>
      <point x="207" y="442" type="line"/>
      <point x="207" y="468" type="line" smooth="yes"/>
      <point x="207" y="614"/>
      <point x="240" y="684"/>
      <point x="311" y="684" type="curve" smooth="yes"/>
      <point x="333" y="684"/>
      <point x="356" y="680"/>
      <point x="356" y="667" type="curve" smooth="yes"/>
      <point x="356" y="660"/>
      <point x="352" y="656"/>
      <point x="348" y="650" type="curve"/>
      <point x="345" y="644"/>
      <point x="341" y="634"/>
      <point x="341" y="624" type="curve" smooth="yes"/>
      <point x="341" y="581"/>
      <point x="371" y="558"/>
      <point x="411" y="558" type="curve" smooth="yes"/>
      <point x="446" y="558"/>
      <point x="476" y="582"/>
      <point x="476" y="627" type="curve" smooth="yes"/>
      <point x="476" y="679"/>
      <point x="415" y="711"/>
      <point x="329" y="711" type="curve" smooth="yes"/>
      <point x="186" y="711"/>
      <point x="89" y="640"/>
      <point x="89" y="463" type="curve" smooth="yes"/>
      <point x="89" y="442" type="line"/>
      <point x="25" y="442" type="line"/>
      <point x="25" y="409" type="line"/>
      <point x="89" y="409" type="line"/>
      <point x="89" y="69" type="line" smooth="yes"/>
      <point x="89" y="48"/>
      <point x="82" y="37"/>
      <point x="62" y="29" type="curve" smooth="yes"/>
      <point x="30" y="17" type="line"/>
    </contour>
  </outline>
</glyph>
<glyph name="f_f_l" format="2">
  <advance width="850"/>
  <unicode hex="FB04"/>
  <anchor x="295" y="0" name="caret_1"/>
  <anchor x="583" y="0" name="caret_2"/>
  <outline>
    <contour>
      <point x="30" y="0" type="line"/>
      <point x="282" y="0" type="line"/>
      <point x="282" y="17" type="line"/>
      <point x="239" y="29" type="line" smooth="yes"/>
      <point x="216" y="35"/>
      <point x="207" y="47"/>
      <point x="207" y="62" type="curve" smooth="yes"/>
      <point x="207" y="409" type="line"/>
      <point x="424" y="409" type="line"/>
      <point x="458" y="442" type="line"/>
      <point x="207" y="442" type="line"/>
      <point x="207" y="489" type="line" smooth="yes"/>
      <point x="207" y="591"/>
      <point x="236" y="661"/>
      <point x="320" y="661" type="curve" smooth="yes"/>
      <point x="363" y="661"/>
      <point x="402" y="636"/>
      <point x="418" y="597" type="curve"/>
      <point x="488" y="628" type="line"/>
      <point x="462" y="659"/>
      <point x="398" y="691"/>
      <point x="329" y="691" type="curve" smooth="yes"/>
      <point x="163" y="691"/>
      <point x="89" y="605"/>
      <point x="89" y="449" type="curve" smooth="yes"/>
      <point x="89" y="442" type="line"/>
      <point x="25" y="442" type="line"/>
      <point x="25" y="409" type="line"/>
      <point x="89" y="409" type="line"/>
      <point x="89" y="69" type="line" smooth="yes"/>
      <point x="89" y="48"/>
      <point x="82" y="37"/>
      <point x="62" y="29" type="curve" smooth="yes"/>
      <point x="30" y="17" type="line"/>
    </contour>
    <component base="fl" xOffset="282"/>
  </outline>
</glyph>
<glyph name="s_t" format="2">
  <advance width="769"/>
  <unicode hex="FB06"/>
  <anchor x="418" y="0" name="caret_1"/>
  <outline>
    <contour>
      <point x="496" y="349" type="line"/>
      <point x="611" y="408" type="line"/>
      <point x="611" y="525" type="line"/>
      <point x="611" y="660"/>
      <point x="507" y="713"/>
      <point x="372" y="713" type="curve" smooth="yes"/>
      <point x="245" y="713"/>
      <point x="130" y="661"/>
      <point x="130" y="555" type="curve" smooth="yes"/>
      <point x="130" y="480"/>
      <point x="212" y="447"/>
      <point x="292" y="426" type="curve"/>
      <point x="316" y="428" type="line"/>
      <point x="277" y="450"/>
      <point x="242" y="475"/>
      <point x="242" y="542" type="curve" smooth="yes"/>
      <point x="242" y="646"/>
      <point x="295" y="691"/>
      <point x="373" y="691" type="curve" smooth="yes"/>
      <point x="467" y="691"/>
      <point x="496" y="628"/>
      <point x="496" y="525" type="curve" smooth="yes"/>
    </contour>
    <component base="s"/>
    <component base="t" xOffset="411"/>
  </outline>
</glyph>
